<svg width="153" height="220" viewBox="0 0 153 220" fill="none" xmlns="http://www.w3.org/2000/svg">
<rect x="20" y="15" width="46" height="191" rx="3" fill="#D9D9D9"/>
<path d="M20 18C20 16.3431 21.3431 15 23 15H63C64.6569 15 66 16.3431 66 18V53H20V18Z" fill="#FDB813"/>
<path d="M20 53H66V98H20V53Z" fill="#FFF200"/>
<path d="M20 98H66V189H20V98Z" fill="#5ABC68"/>
<path d="M20 189H66V196H20V189Z" fill="#ED1C24"/>
<path d="M20 196H66V203C66 204.657 64.6569 206 63 206H23C21.3431 206 20 204.657 20 203V196Z" fill="#A71B29"/>
<path d="M3.61 57H2.6V51.64H1.2V50.94H1.41C1.81 50.94 2.11667 50.8533 2.33 50.68C2.55 50.5 2.68667 50.27 2.74 49.99H3.61V57ZM6.99055 53.01C7.39055 53.01 7.71388 52.9067 7.96055 52.7C8.20721 52.4933 8.33055 52.2133 8.33055 51.86C8.33055 51.5 8.21055 51.2167 7.97055 51.01C7.73721 50.8033 7.44055 50.7 7.08055 50.7C6.72721 50.7 6.43055 50.8067 6.19055 51.02C5.95055 51.2333 5.80388 51.5367 5.75055 51.93L4.75055 51.83C4.82388 51.2167 5.06721 50.7367 5.48055 50.39C5.90055 50.0367 6.43388 49.86 7.08055 49.86C7.52055 49.86 7.91388 49.94 8.26055 50.1C8.60721 50.2533 8.88055 50.4833 9.08055 50.79C9.28055 51.09 9.38055 51.4467 9.38055 51.86C9.38055 52.1933 9.28388 52.49 9.09055 52.75C8.90388 53.0033 8.65721 53.1967 8.35055 53.33V53.37C8.72388 53.49 9.02388 53.6967 9.25055 53.99C9.48388 54.2767 9.60055 54.63 9.60055 55.05C9.60055 55.7233 9.36388 56.24 8.89055 56.6C8.41721 56.96 7.81388 57.14 7.08055 57.14C6.36721 57.14 5.78055 56.9567 5.32055 56.59C4.86721 56.2233 4.59055 55.6867 4.49055 54.98L5.53055 54.87C5.59721 55.3567 5.76388 55.7167 6.03055 55.95C6.30388 56.1833 6.65388 56.3 7.08055 56.3C7.50055 56.3 7.84721 56.19 8.12055 55.97C8.40055 55.7433 8.54055 55.4367 8.54055 55.05C8.54055 54.63 8.40055 54.3167 8.12055 54.11C7.84055 53.8967 7.46388 53.79 6.99055 53.79H6.37055V53.01H6.99055ZM11.6751 55.76V57H10.4351V55.76H11.6751ZM14.8223 54.5C14.4623 54.5 14.1023 54.4133 13.7423 54.24C13.3823 54.0667 13.0857 53.81 12.8523 53.47C12.619 53.13 12.5023 52.7167 12.5023 52.23C12.5023 51.71 12.619 51.2733 12.8523 50.92C13.0923 50.56 13.3957 50.2933 13.7623 50.12C14.129 49.9467 14.509 49.86 14.9023 49.86C15.3357 49.86 15.7323 49.9433 16.0923 50.11C16.4523 50.27 16.7523 50.5167 16.9923 50.85C17.1857 51.1233 17.3323 51.49 17.4323 51.95C17.539 52.41 17.5923 52.93 17.5923 53.51C17.5923 54.8767 17.3357 55.8233 16.8223 56.35C16.309 56.8767 15.6723 57.14 14.9123 57.14C14.379 57.14 13.9057 56.9967 13.4923 56.71C13.0857 56.4167 12.7957 56 12.6223 55.46L13.6423 55.34C13.7357 55.62 13.889 55.8567 14.1023 56.05C14.3223 56.2433 14.5923 56.34 14.9123 56.34C15.379 56.34 15.7723 56.1567 16.0923 55.79C16.419 55.4167 16.5823 54.76 16.5823 53.82V53.73H16.5423C16.329 53.99 16.069 54.1833 15.7623 54.31C15.4623 54.4367 15.149 54.5 14.8223 54.5ZM14.9223 50.66C14.6757 50.66 14.4457 50.72 14.2323 50.84C14.019 50.96 13.8457 51.1333 13.7123 51.36C13.5857 51.5867 13.5223 51.86 13.5223 52.18C13.5223 52.4933 13.5857 52.7667 13.7123 53C13.8457 53.2267 14.019 53.4 14.2323 53.52C14.4457 53.64 14.6757 53.7 14.9223 53.7C15.1957 53.7 15.4457 53.6367 15.6723 53.51C15.899 53.3833 16.079 53.2067 16.2123 52.98C16.3457 52.7467 16.4123 52.48 16.4123 52.18C16.4123 51.8733 16.3457 51.6067 16.2123 51.38C16.079 51.1467 15.899 50.97 15.6723 50.85C15.4457 50.7233 15.1957 50.66 14.9223 50.66Z" fill="#484848"/>
<path d="M2.61 102H1.6V96.64H0.2V95.94H0.41C0.81 95.94 1.11667 95.8533 1.33 95.68C1.55 95.5 1.68667 95.27 1.74 94.99H2.61V102ZM6.34055 94.85C7.12721 94.85 7.77055 95.1367 8.27055 95.71C8.77721 96.2833 9.03055 97.2133 9.03055 98.5C9.03055 99.78 8.77721 100.707 8.27055 101.28C7.77055 101.853 7.12721 102.14 6.34055 102.14C5.55388 102.14 4.91055 101.853 4.41055 101.28C3.91055 100.707 3.66055 99.78 3.66055 98.5C3.66055 97.2133 3.91055 96.2833 4.41055 95.71C4.91055 95.1367 5.55388 94.85 6.34055 94.85ZM6.34055 101.3C6.83388 101.3 7.22721 101.097 7.52055 100.69C7.82055 100.277 7.97055 99.5467 7.97055 98.5C7.97055 97.4467 7.82055 96.7167 7.52055 96.31C7.22721 95.8967 6.83388 95.69 6.34055 95.69C5.84721 95.69 5.45388 95.8967 5.16055 96.31C4.86721 96.7167 4.72055 97.4467 4.72055 98.5C4.72055 99.5467 4.86721 100.277 5.16055 100.69C5.45388 101.097 5.84721 101.3 6.34055 101.3ZM11.1048 100.76V102H9.86477V100.76H11.1048ZM14.612 94.85C15.3987 94.85 16.042 95.1367 16.542 95.71C17.0487 96.2833 17.302 97.2133 17.302 98.5C17.302 99.78 17.0487 100.707 16.542 101.28C16.042 101.853 15.3987 102.14 14.612 102.14C13.8254 102.14 13.182 101.853 12.682 101.28C12.182 100.707 11.932 99.78 11.932 98.5C11.932 97.2133 12.182 96.2833 12.682 95.71C13.182 95.1367 13.8254 94.85 14.612 94.85ZM14.612 101.3C15.1054 101.3 15.4987 101.097 15.792 100.69C16.092 100.277 16.242 99.5467 16.242 98.5C16.242 97.4467 16.092 96.7167 15.792 96.31C15.4987 95.8967 15.1054 95.69 14.612 95.69C14.1187 95.69 13.7254 95.8967 13.432 96.31C13.1387 96.7167 12.992 97.4467 12.992 98.5C12.992 99.5467 13.1387 100.277 13.432 100.69C13.7254 101.097 14.1187 101.3 14.612 101.3Z" fill="#484848"/>
<path d="M6.68 187.01C7.08 187.01 7.40333 186.907 7.65 186.7C7.89667 186.493 8.02 186.213 8.02 185.86C8.02 185.5 7.9 185.217 7.66 185.01C7.42667 184.803 7.13 184.7 6.77 184.7C6.41667 184.7 6.12 184.807 5.88 185.02C5.64 185.233 5.49333 185.537 5.44 185.93L4.44 185.83C4.51333 185.217 4.75667 184.737 5.17 184.39C5.59 184.037 6.12333 183.86 6.77 183.86C7.21 183.86 7.60333 183.94 7.95 184.1C8.29667 184.253 8.57 184.483 8.77 184.79C8.97 185.09 9.07 185.447 9.07 185.86C9.07 186.193 8.97333 186.49 8.78 186.75C8.59333 187.003 8.34667 187.197 8.04 187.33V187.37C8.41333 187.49 8.71333 187.697 8.94 187.99C9.17333 188.277 9.29 188.63 9.29 189.05C9.29 189.723 9.05333 190.24 8.58 190.6C8.10667 190.96 7.50333 191.14 6.77 191.14C6.05667 191.14 5.47 190.957 5.01 190.59C4.55667 190.223 4.28 189.687 4.18 188.98L5.22 188.87C5.28667 189.357 5.45333 189.717 5.72 189.95C5.99333 190.183 6.34333 190.3 6.77 190.3C7.19 190.3 7.53667 190.19 7.81 189.97C8.09 189.743 8.23 189.437 8.23 189.05C8.23 188.63 8.09 188.317 7.81 188.11C7.53 187.897 7.15333 187.79 6.68 187.79H6.06V187.01H6.68ZM11.3645 189.76V191H10.1245V189.76H11.3645ZM14.5118 188.5C14.1518 188.5 13.7918 188.413 13.4318 188.24C13.0718 188.067 12.7751 187.81 12.5418 187.47C12.3085 187.13 12.1918 186.717 12.1918 186.23C12.1918 185.71 12.3085 185.273 12.5418 184.92C12.7818 184.56 13.0851 184.293 13.4518 184.12C13.8185 183.947 14.1985 183.86 14.5918 183.86C15.0251 183.86 15.4218 183.943 15.7818 184.11C16.1418 184.27 16.4418 184.517 16.6818 184.85C16.8751 185.123 17.0218 185.49 17.1218 185.95C17.2285 186.41 17.2818 186.93 17.2818 187.51C17.2818 188.877 17.0251 189.823 16.5118 190.35C15.9985 190.877 15.3618 191.14 14.6018 191.14C14.0685 191.14 13.5951 190.997 13.1818 190.71C12.7751 190.417 12.4851 190 12.3118 189.46L13.3318 189.34C13.4251 189.62 13.5785 189.857 13.7918 190.05C14.0118 190.243 14.2818 190.34 14.6018 190.34C15.0685 190.34 15.4618 190.157 15.7818 189.79C16.1085 189.417 16.2718 188.76 16.2718 187.82V187.73H16.2318C16.0185 187.99 15.7585 188.183 15.4518 188.31C15.1518 188.437 14.8385 188.5 14.5118 188.5ZM14.6118 184.66C14.3651 184.66 14.1351 184.72 13.9218 184.84C13.7085 184.96 13.5351 185.133 13.4018 185.36C13.2751 185.587 13.2118 185.86 13.2118 186.18C13.2118 186.493 13.2751 186.767 13.4018 187C13.5351 187.227 13.7085 187.4 13.9218 187.52C14.1351 187.64 14.3651 187.7 14.6118 187.7C14.8851 187.7 15.1351 187.637 15.3618 187.51C15.5885 187.383 15.7685 187.207 15.9018 186.98C16.0351 186.747 16.1018 186.48 16.1018 186.18C16.1018 185.873 16.0351 185.607 15.9018 185.38C15.7685 185.147 15.5885 184.97 15.3618 184.85C15.1351 184.723 14.8851 184.66 14.6118 184.66Z" fill="#484848"/>
<path d="M6.68 197.01C7.08 197.01 7.40333 196.907 7.65 196.7C7.89667 196.493 8.02 196.213 8.02 195.86C8.02 195.5 7.9 195.217 7.66 195.01C7.42667 194.803 7.13 194.7 6.77 194.7C6.41667 194.7 6.12 194.807 5.88 195.02C5.64 195.233 5.49333 195.537 5.44 195.93L4.44 195.83C4.51333 195.217 4.75667 194.737 5.17 194.39C5.59 194.037 6.12333 193.86 6.77 193.86C7.21 193.86 7.60333 193.94 7.95 194.1C8.29667 194.253 8.57 194.483 8.77 194.79C8.97 195.09 9.07 195.447 9.07 195.86C9.07 196.193 8.97333 196.49 8.78 196.75C8.59333 197.003 8.34667 197.197 8.04 197.33V197.37C8.41333 197.49 8.71333 197.697 8.94 197.99C9.17333 198.277 9.29 198.63 9.29 199.05C9.29 199.723 9.05333 200.24 8.58 200.6C8.10667 200.96 7.50333 201.14 6.77 201.14C6.05667 201.14 5.47 200.957 5.01 200.59C4.55667 200.223 4.28 199.687 4.18 198.98L5.22 198.87C5.28667 199.357 5.45333 199.717 5.72 199.95C5.99333 200.183 6.34333 200.3 6.77 200.3C7.19 200.3 7.53667 200.19 7.81 199.97C8.09 199.743 8.23 199.437 8.23 199.05C8.23 198.63 8.09 198.317 7.81 198.11C7.53 197.897 7.15333 197.79 6.68 197.79H6.06V197.01H6.68ZM11.3645 199.76V201H10.1245V199.76H11.3645ZM14.8718 193.85C15.6585 193.85 16.3018 194.137 16.8018 194.71C17.3085 195.283 17.5618 196.213 17.5618 197.5C17.5618 198.78 17.3085 199.707 16.8018 200.28C16.3018 200.853 15.6585 201.14 14.8718 201.14C14.0851 201.14 13.4418 200.853 12.9418 200.28C12.4418 199.707 12.1918 198.78 12.1918 197.5C12.1918 196.213 12.4418 195.283 12.9418 194.71C13.4418 194.137 14.0851 193.85 14.8718 193.85ZM14.8718 200.3C15.3651 200.3 15.7585 200.097 16.0518 199.69C16.3518 199.277 16.5018 198.547 16.5018 197.5C16.5018 196.447 16.3518 195.717 16.0518 195.31C15.7585 194.897 15.3651 194.69 14.8718 194.69C14.3785 194.69 13.9851 194.897 13.6918 195.31C13.3985 195.717 13.2518 196.447 13.2518 197.5C13.2518 198.547 13.3985 199.277 13.6918 199.69C13.9851 200.097 14.3785 200.3 14.8718 200.3Z" fill="#484848"/>
<path d="M42 15V13C42 10.7909 43.7909 9 46 9H67" stroke="#484848" stroke-width="2"/>
<path d="M42 206V208C42 210.209 43.7909 212 46 212H67" stroke="#484848" stroke-width="2"/>
<path d="M75.754 14H73.78L70.042 4.004H71.946L74.746 12.04H74.802L77.602 4.004H79.492L75.754 14ZM85.8142 11.83C85.6182 12.474 85.2402 13.0247 84.6802 13.482C84.1202 13.9393 83.3315 14.168 82.3142 14.168C81.6049 14.168 80.9795 14.0093 80.4382 13.692C79.8969 13.3653 79.4769 12.9127 79.1782 12.334C78.8889 11.7553 78.7442 11.0833 78.7442 10.318C78.7442 9.534 78.8889 8.85267 79.1782 8.274C79.4675 7.686 79.8782 7.23333 80.4102 6.916C80.9515 6.58933 81.5862 6.426 82.3142 6.426C83.0142 6.426 83.6302 6.57533 84.1622 6.874C84.7035 7.17267 85.1235 7.61133 85.4222 8.19C85.7302 8.75933 85.8842 9.44067 85.8842 10.234C85.8842 10.3273 85.8749 10.4767 85.8562 10.682H80.4102C80.4289 11.3447 80.6109 11.886 80.9562 12.306C81.3015 12.7167 81.7542 12.922 82.3142 12.922C82.8462 12.922 83.2569 12.796 83.5462 12.544C83.8355 12.2827 84.0362 11.984 84.1482 11.648L85.8142 11.83ZM82.3142 7.672C81.7635 7.672 81.3249 7.84933 80.9982 8.204C80.6809 8.54933 80.4942 8.98333 80.4382 9.506H84.2042C84.1482 8.98333 83.9569 8.54933 83.6302 8.204C83.3129 7.84933 82.8742 7.672 82.3142 7.672ZM88.3288 7.714H88.3848C88.5902 7.33133 88.8842 7.02333 89.2668 6.79C89.6495 6.54733 90.0928 6.426 90.5968 6.426C90.8115 6.426 91.0122 6.44933 91.1988 6.496V8.064C90.9375 8.02667 90.6902 8.008 90.4568 8.008C89.0942 8.008 88.4128 8.71733 88.4128 10.136V14H86.7748V6.594H88.3288V7.714ZM96.2216 14C95.9322 14.7747 95.6429 15.358 95.3536 15.75C95.0642 16.1513 94.7609 16.4173 94.4436 16.548C94.1356 16.6787 93.7622 16.744 93.3236 16.744C92.8849 16.744 92.5536 16.73 92.3296 16.702V15.302C92.3669 15.302 92.4462 15.3113 92.5676 15.33C92.6982 15.3487 92.8709 15.358 93.0856 15.358C93.4402 15.358 93.7062 15.274 93.8836 15.106C94.0702 14.938 94.2569 14.6253 94.4436 14.168L94.5556 13.916L91.5876 6.594H93.3656L95.3396 11.984H95.3956L97.2156 6.594H98.9796L96.2216 14ZM110.583 14H108.819V9.66H104.003V14H102.239V4.004H104.003V8.204H108.819V4.004H110.583V14ZM113.406 6.594V14H111.754V6.594H113.406ZM113.406 3.864V5.474H111.768V3.864H113.406ZM121.43 13.468C121.43 14.5973 121.104 15.4233 120.45 15.946C119.806 16.478 118.952 16.744 117.888 16.744C117.02 16.744 116.278 16.548 115.662 16.156C115.056 15.7733 114.64 15.176 114.416 14.364L116.012 14.098C116.152 14.5833 116.376 14.9287 116.684 15.134C116.992 15.3487 117.394 15.456 117.888 15.456C119.158 15.456 119.792 14.77 119.792 13.398V12.684H119.736C119.531 12.9733 119.242 13.202 118.868 13.37C118.504 13.5287 118.075 13.608 117.58 13.608C116.955 13.608 116.395 13.4587 115.9 13.16C115.406 12.8613 115.018 12.4413 114.738 11.9C114.468 11.3587 114.332 10.7333 114.332 10.024C114.332 9.31467 114.468 8.68933 114.738 8.148C115.018 7.59733 115.406 7.17267 115.9 6.874C116.395 6.57533 116.96 6.426 117.594 6.426C118.098 6.426 118.542 6.51467 118.924 6.692C119.307 6.86933 119.601 7.126 119.806 7.462H119.862V6.594H121.43V13.468ZM117.958 12.348C118.546 12.348 119.013 12.138 119.358 11.718C119.713 11.2887 119.89 10.724 119.89 10.024C119.89 9.33333 119.713 8.778 119.358 8.358C119.013 7.938 118.546 7.728 117.958 7.728C117.361 7.728 116.885 7.938 116.53 8.358C116.176 8.778 115.998 9.33333 115.998 10.024C115.998 10.724 116.176 11.2887 116.53 11.718C116.885 12.138 117.361 12.348 117.958 12.348ZM124.193 7.574C124.744 6.80867 125.505 6.426 126.475 6.426C126.933 6.426 127.353 6.524 127.735 6.72C128.127 6.90667 128.44 7.20533 128.673 7.616C128.916 8.01733 129.037 8.51667 129.037 9.114V14H127.399V9.562C127.399 8.92733 127.269 8.47467 127.007 8.204C126.755 7.924 126.373 7.784 125.859 7.784C125.57 7.784 125.29 7.87733 125.019 8.064C124.758 8.25067 124.543 8.51667 124.375 8.862C124.217 9.20733 124.137 9.60867 124.137 10.066V14H122.499V3.864H124.137V7.574H124.193Z" fill="black"/>
<path d="M78.946 81H77.182V76.66H72.366V81H70.602V71.004H72.366V75.204H77.182V71.004H78.946V81ZM81.769 73.594V81H80.117V73.594H81.769ZM81.769 70.864V72.474H80.131V70.864H81.769ZM89.7937 80.468C89.7937 81.5973 89.467 82.4233 88.8137 82.946C88.1697 83.478 87.3157 83.744 86.2517 83.744C85.3837 83.744 84.6417 83.548 84.0257 83.156C83.419 82.7733 83.0037 82.176 82.7797 81.364L84.3757 81.098C84.5157 81.5833 84.7397 81.9287 85.0477 82.134C85.3557 82.3487 85.757 82.456 86.2517 82.456C87.521 82.456 88.1557 81.77 88.1557 80.398V79.684H88.0997C87.8944 79.9733 87.605 80.202 87.2317 80.37C86.8677 80.5287 86.4384 80.608 85.9437 80.608C85.3184 80.608 84.7584 80.4587 84.2637 80.16C83.769 79.8613 83.3817 79.4413 83.1017 78.9C82.831 78.3587 82.6957 77.7333 82.6957 77.024C82.6957 76.3147 82.831 75.6893 83.1017 75.148C83.3817 74.5973 83.769 74.1727 84.2637 73.874C84.7584 73.5753 85.323 73.426 85.9577 73.426C86.4617 73.426 86.905 73.5147 87.2877 73.692C87.6704 73.8693 87.9644 74.126 88.1697 74.462H88.2257V73.594H89.7937V80.468ZM86.3217 79.348C86.9097 79.348 87.3764 79.138 87.7217 78.718C88.0764 78.2887 88.2537 77.724 88.2537 77.024C88.2537 76.3333 88.0764 75.778 87.7217 75.358C87.3764 74.938 86.9097 74.728 86.3217 74.728C85.7244 74.728 85.2484 74.938 84.8937 75.358C84.539 75.778 84.3617 76.3333 84.3617 77.024C84.3617 77.724 84.539 78.2887 84.8937 78.718C85.2484 79.138 85.7244 79.348 86.3217 79.348ZM92.5567 74.574C93.1074 73.8087 93.8681 73.426 94.8387 73.426C95.2961 73.426 95.7161 73.524 96.0987 73.72C96.4907 73.9067 96.8034 74.2053 97.0367 74.616C97.2794 75.0173 97.4007 75.5167 97.4007 76.114V81H95.7627V76.562C95.7627 75.9273 95.6321 75.4747 95.3707 75.204C95.1187 74.924 94.7361 74.784 94.2227 74.784C93.9334 74.784 93.6534 74.8773 93.3827 75.064C93.1214 75.2507 92.9067 75.5167 92.7387 75.862C92.5801 76.2073 92.5007 76.6087 92.5007 77.066V81H90.8627V70.864H92.5007V74.574H92.5567Z" fill="black"/>
<path d="M75.278 140.516V149H73.514V140.516H70.21V139.004H78.582V140.516H75.278ZM82.9652 149C82.8999 148.925 82.8439 148.799 82.7972 148.622C82.7599 148.445 82.7412 148.239 82.7412 148.006C82.5265 148.379 82.1859 148.669 81.7192 148.874C81.2619 149.07 80.7812 149.168 80.2772 149.168C79.8385 149.168 79.4279 149.079 79.0452 148.902C78.6719 148.725 78.3732 148.468 78.1492 148.132C77.9345 147.796 77.8272 147.409 77.8272 146.97C77.8272 146.205 78.0839 145.64 78.5972 145.276C79.1199 144.912 79.9039 144.679 80.9492 144.576C81.6399 144.501 82.1112 144.403 82.3632 144.282C82.6152 144.151 82.7412 143.965 82.7412 143.722C82.7412 143.395 82.6199 143.143 82.3772 142.966C82.1439 142.789 81.7799 142.7 81.2852 142.7C80.9025 142.7 80.5572 142.798 80.2492 142.994C79.9505 143.19 79.7405 143.484 79.6192 143.876L78.1072 143.582C78.2659 142.91 78.6345 142.383 79.2132 142C79.8012 141.617 80.5105 141.426 81.3412 141.426C82.3772 141.426 83.1425 141.636 83.6372 142.056C84.1319 142.476 84.3792 143.036 84.3792 143.736V147.446C84.3792 147.903 84.3885 148.239 84.4072 148.454C84.4352 148.669 84.4912 148.851 84.5752 149H82.9652ZM82.7412 145.262C82.6292 145.365 82.4192 145.453 82.1112 145.528C81.8032 145.593 81.4112 145.654 80.9352 145.71C80.5152 145.766 80.1699 145.897 79.8992 146.102C79.6285 146.298 79.4932 146.573 79.4932 146.928C79.4932 147.255 79.5959 147.507 79.8012 147.684C80.0159 147.861 80.3099 147.95 80.6832 147.95C81.0099 147.95 81.3272 147.885 81.6352 147.754C81.9525 147.623 82.2139 147.423 82.4192 147.152C82.6339 146.872 82.7412 146.522 82.7412 146.102V145.262ZM86.989 142.714H87.045C87.2503 142.331 87.5443 142.023 87.927 141.79C88.3097 141.547 88.753 141.426 89.257 141.426C89.4717 141.426 89.6723 141.449 89.859 141.496V143.064C89.5977 143.027 89.3503 143.008 89.117 143.008C87.7543 143.008 87.073 143.717 87.073 145.136V149H85.435V141.594H86.989V142.714ZM97.4089 148.468C97.4089 149.597 97.0823 150.423 96.4289 150.946C95.7849 151.478 94.9309 151.744 93.8669 151.744C92.9989 151.744 92.2569 151.548 91.6409 151.156C91.0343 150.773 90.6189 150.176 90.3949 149.364L91.9909 149.098C92.1309 149.583 92.3549 149.929 92.6629 150.134C92.9709 150.349 93.3723 150.456 93.8669 150.456C95.1363 150.456 95.7709 149.77 95.7709 148.398V147.684H95.7149C95.5096 147.973 95.2203 148.202 94.8469 148.37C94.4829 148.529 94.0536 148.608 93.5589 148.608C92.9336 148.608 92.3736 148.459 91.8789 148.16C91.3843 147.861 90.9969 147.441 90.7169 146.9C90.4463 146.359 90.3109 145.733 90.3109 145.024C90.3109 144.315 90.4463 143.689 90.7169 143.148C90.9969 142.597 91.3843 142.173 91.8789 141.874C92.3736 141.575 92.9383 141.426 93.5729 141.426C94.0769 141.426 94.5203 141.515 94.9029 141.692C95.2856 141.869 95.5796 142.126 95.7849 142.462H95.8409V141.594H97.4089V148.468ZM93.9369 147.348C94.5249 147.348 94.9916 147.138 95.3369 146.718C95.6916 146.289 95.8689 145.724 95.8689 145.024C95.8689 144.333 95.6916 143.778 95.3369 143.358C94.9916 142.938 94.5249 142.728 93.9369 142.728C93.3396 142.728 92.8636 142.938 92.5089 143.358C92.1543 143.778 91.9769 144.333 91.9769 145.024C91.9769 145.724 92.1543 146.289 92.5089 146.718C92.8636 147.138 93.3396 147.348 93.9369 147.348ZM105.324 146.83C105.128 147.474 104.75 148.025 104.19 148.482C103.63 148.939 102.841 149.168 101.824 149.168C101.115 149.168 100.489 149.009 99.948 148.692C99.4066 148.365 98.9866 147.913 98.688 147.334C98.3986 146.755 98.254 146.083 98.254 145.318C98.254 144.534 98.3986 143.853 98.688 143.274C98.9773 142.686 99.388 142.233 99.92 141.916C100.461 141.589 101.096 141.426 101.824 141.426C102.524 141.426 103.14 141.575 103.672 141.874C104.213 142.173 104.633 142.611 104.932 143.19C105.24 143.759 105.394 144.441 105.394 145.234C105.394 145.327 105.385 145.477 105.366 145.682H99.92C99.9386 146.345 100.121 146.886 100.466 147.306C100.811 147.717 101.264 147.922 101.824 147.922C102.356 147.922 102.767 147.796 103.056 147.544C103.345 147.283 103.546 146.984 103.658 146.648L105.324 146.83ZM101.824 142.672C101.273 142.672 100.835 142.849 100.508 143.204C100.191 143.549 100.004 143.983 99.948 144.506H103.714C103.658 143.983 103.467 143.549 103.14 143.204C102.823 142.849 102.384 142.672 101.824 142.672ZM109.273 147.656C109.59 147.656 109.814 147.651 109.945 147.642V149C109.721 149.019 109.338 149.028 108.797 149.028C108.311 149.028 107.924 148.981 107.635 148.888C107.355 148.795 107.145 148.627 107.005 148.384C106.865 148.141 106.795 147.796 106.795 147.348V142.77H105.591V141.594H106.795V139.522H108.433V141.594H110.015V142.77H108.433V146.914C108.433 147.231 108.493 147.437 108.615 147.53C108.736 147.614 108.955 147.656 109.273 147.656ZM117.579 145.178H115.255V149H113.491V139.004H118.237C119.347 139.004 120.211 139.279 120.827 139.83C121.452 140.381 121.765 141.132 121.765 142.084C121.765 142.84 121.569 143.475 121.177 143.988C120.785 144.501 120.22 144.851 119.483 145.038L121.933 149H119.875L117.579 145.178ZM117.985 143.736C118.629 143.736 119.119 143.596 119.455 143.316C119.791 143.027 119.959 142.616 119.959 142.084C119.959 141.561 119.791 141.16 119.455 140.88C119.119 140.591 118.629 140.446 117.985 140.446H115.255V143.736H117.985ZM127.344 149C127.279 148.925 127.223 148.799 127.176 148.622C127.139 148.445 127.12 148.239 127.12 148.006C126.905 148.379 126.565 148.669 126.098 148.874C125.641 149.07 125.16 149.168 124.656 149.168C124.217 149.168 123.807 149.079 123.424 148.902C123.051 148.725 122.752 148.468 122.528 148.132C122.313 147.796 122.206 147.409 122.206 146.97C122.206 146.205 122.463 145.64 122.976 145.276C123.499 144.912 124.283 144.679 125.328 144.576C126.019 144.501 126.49 144.403 126.742 144.282C126.994 144.151 127.12 143.965 127.12 143.722C127.12 143.395 126.999 143.143 126.756 142.966C126.523 142.789 126.159 142.7 125.664 142.7C125.281 142.7 124.936 142.798 124.628 142.994C124.329 143.19 124.119 143.484 123.998 143.876L122.486 143.582C122.645 142.91 123.013 142.383 123.592 142C124.18 141.617 124.889 141.426 125.72 141.426C126.756 141.426 127.521 141.636 128.016 142.056C128.511 142.476 128.758 143.036 128.758 143.736V147.446C128.758 147.903 128.767 148.239 128.786 148.454C128.814 148.669 128.87 148.851 128.954 149H127.344ZM127.12 145.262C127.008 145.365 126.798 145.453 126.49 145.528C126.182 145.593 125.79 145.654 125.314 145.71C124.894 145.766 124.549 145.897 124.278 146.102C124.007 146.298 123.872 146.573 123.872 146.928C123.872 147.255 123.975 147.507 124.18 147.684C124.395 147.861 124.689 147.95 125.062 147.95C125.389 147.95 125.706 147.885 126.014 147.754C126.331 147.623 126.593 147.423 126.798 147.152C127.013 146.872 127.12 146.522 127.12 146.102V145.262ZM131.424 142.574C131.975 141.809 132.749 141.426 133.748 141.426C134.485 141.426 135.101 141.655 135.596 142.112C136.1 142.56 136.352 143.227 136.352 144.114V149H134.714V144.562C134.714 143.927 134.583 143.475 134.322 143.204C134.07 142.924 133.687 142.784 133.174 142.784C132.866 142.784 132.581 142.868 132.32 143.036C132.059 143.204 131.849 143.451 131.69 143.778C131.531 144.105 131.452 144.497 131.452 144.954V149H129.814V141.594H131.382L131.368 142.574H131.424ZM144.303 148.468C144.303 149.597 143.977 150.423 143.323 150.946C142.679 151.478 141.825 151.744 140.761 151.744C139.893 151.744 139.151 151.548 138.535 151.156C137.929 150.773 137.513 150.176 137.289 149.364L138.885 149.098C139.025 149.583 139.249 149.929 139.557 150.134C139.865 150.349 140.267 150.456 140.761 150.456C142.031 150.456 142.665 149.77 142.665 148.398V147.684H142.609C142.404 147.973 142.115 148.202 141.741 148.37C141.377 148.529 140.948 148.608 140.453 148.608C139.828 148.608 139.268 148.459 138.773 148.16C138.279 147.861 137.891 147.441 137.611 146.9C137.341 146.359 137.205 145.733 137.205 145.024C137.205 144.315 137.341 143.689 137.611 143.148C137.891 142.597 138.279 142.173 138.773 141.874C139.268 141.575 139.833 141.426 140.467 141.426C140.971 141.426 141.415 141.515 141.797 141.692C142.18 141.869 142.474 142.126 142.679 142.462H142.735V141.594H144.303V148.468ZM140.831 147.348C141.419 147.348 141.886 147.138 142.231 146.718C142.586 146.289 142.763 145.724 142.763 145.024C142.763 144.333 142.586 143.778 142.231 143.358C141.886 142.938 141.419 142.728 140.831 142.728C140.234 142.728 139.758 142.938 139.403 143.358C139.049 143.778 138.871 144.333 138.871 145.024C138.871 145.724 139.049 146.289 139.403 146.718C139.758 147.138 140.234 147.348 140.831 147.348ZM152.219 146.83C152.023 147.474 151.645 148.025 151.085 148.482C150.525 148.939 149.736 149.168 148.719 149.168C148.009 149.168 147.384 149.009 146.843 148.692C146.301 148.365 145.881 147.913 145.583 147.334C145.293 146.755 145.149 146.083 145.149 145.318C145.149 144.534 145.293 143.853 145.583 143.274C145.872 142.686 146.283 142.233 146.815 141.916C147.356 141.589 147.991 141.426 148.719 141.426C149.419 141.426 150.035 141.575 150.567 141.874C151.108 142.173 151.528 142.611 151.827 143.19C152.135 143.759 152.289 144.441 152.289 145.234C152.289 145.327 152.279 145.477 152.261 145.682H146.815C146.833 146.345 147.015 146.886 147.361 147.306C147.706 147.717 148.159 147.922 148.719 147.922C149.251 147.922 149.661 147.796 149.951 147.544C150.24 147.283 150.441 146.984 150.553 146.648L152.219 146.83ZM148.719 142.672C148.168 142.672 147.729 142.849 147.403 143.204C147.085 143.549 146.899 143.983 146.843 144.506H150.609C150.553 143.983 150.361 143.549 150.035 143.204C149.717 142.849 149.279 142.672 148.719 142.672Z" fill="black"/>
<path d="M70.602 188.004H72.38V196.488H77.756V198H70.602V188.004ZM81.8793 190.426C82.6167 190.426 83.2607 190.585 83.8113 190.902C84.362 191.219 84.7867 191.672 85.0853 192.26C85.384 192.848 85.5333 193.529 85.5333 194.304C85.5333 195.079 85.384 195.76 85.0853 196.348C84.7867 196.927 84.362 197.375 83.8113 197.692C83.2607 198.009 82.6167 198.168 81.8793 198.168C81.1327 198.168 80.4793 198.009 79.9193 197.692C79.3687 197.375 78.944 196.927 78.6453 196.348C78.3467 195.76 78.1973 195.079 78.1973 194.304C78.1973 193.529 78.3467 192.848 78.6453 192.26C78.944 191.672 79.3687 191.219 79.9193 190.902C80.4793 190.585 81.1327 190.426 81.8793 190.426ZM81.8793 196.88C82.486 196.88 82.9667 196.656 83.3213 196.208C83.676 195.751 83.8533 195.116 83.8533 194.304C83.8533 193.492 83.676 192.857 83.3213 192.4C82.9667 191.943 82.486 191.714 81.8793 191.714C81.2633 191.714 80.7733 191.943 80.4093 192.4C80.0547 192.857 79.8773 193.492 79.8773 194.304C79.8773 195.116 80.0547 195.751 80.4093 196.208C80.764 196.656 81.254 196.88 81.8793 196.88ZM94.5912 198H92.7572L91.2172 192.694H91.1612L89.6072 198H87.8432L85.4352 190.594H87.2272L88.7672 196.068H88.8232L90.3072 190.594H92.1692L93.6532 196.068H93.7092L95.2492 190.594H96.9852L94.5912 198Z" fill="black"/>
<path d="M75.754 217H73.78L70.042 207.004H71.946L74.746 215.04H74.802L77.602 207.004H79.492L75.754 217ZM85.8142 214.83C85.6182 215.474 85.2402 216.025 84.6802 216.482C84.1202 216.939 83.3315 217.168 82.3142 217.168C81.6049 217.168 80.9795 217.009 80.4382 216.692C79.8969 216.365 79.4769 215.913 79.1782 215.334C78.8889 214.755 78.7442 214.083 78.7442 213.318C78.7442 212.534 78.8889 211.853 79.1782 211.274C79.4675 210.686 79.8782 210.233 80.4102 209.916C80.9515 209.589 81.5862 209.426 82.3142 209.426C83.0142 209.426 83.6302 209.575 84.1622 209.874C84.7035 210.173 85.1235 210.611 85.4222 211.19C85.7302 211.759 85.8842 212.441 85.8842 213.234C85.8842 213.327 85.8749 213.477 85.8562 213.682H80.4102C80.4289 214.345 80.6109 214.886 80.9562 215.306C81.3015 215.717 81.7542 215.922 82.3142 215.922C82.8462 215.922 83.2569 215.796 83.5462 215.544C83.8355 215.283 84.0362 214.984 84.1482 214.648L85.8142 214.83ZM82.3142 210.672C81.7635 210.672 81.3249 210.849 80.9982 211.204C80.6809 211.549 80.4942 211.983 80.4382 212.506H84.2042C84.1482 211.983 83.9569 211.549 83.6302 211.204C83.3129 210.849 82.8742 210.672 82.3142 210.672ZM88.3288 210.714H88.3848C88.5902 210.331 88.8842 210.023 89.2668 209.79C89.6495 209.547 90.0928 209.426 90.5968 209.426C90.8115 209.426 91.0122 209.449 91.1988 209.496V211.064C90.9375 211.027 90.6902 211.008 90.4568 211.008C89.0942 211.008 88.4128 211.717 88.4128 213.136V217H86.7748V209.594H88.3288V210.714ZM96.2216 217C95.9322 217.775 95.6429 218.358 95.3536 218.75C95.0642 219.151 94.7609 219.417 94.4436 219.548C94.1356 219.679 93.7622 219.744 93.3236 219.744C92.8849 219.744 92.5536 219.73 92.3296 219.702V218.302C92.3669 218.302 92.4462 218.311 92.5676 218.33C92.6982 218.349 92.8709 218.358 93.0856 218.358C93.4402 218.358 93.7062 218.274 93.8836 218.106C94.0702 217.938 94.2569 217.625 94.4436 217.168L94.5556 216.916L91.5876 209.594H93.3656L95.3396 214.984H95.3956L97.2156 209.594H98.9796L96.2216 217ZM102.239 207.004H104.017V215.488H109.393V217H102.239V207.004ZM113.516 209.426C114.253 209.426 114.897 209.585 115.448 209.902C115.999 210.219 116.423 210.672 116.722 211.26C117.021 211.848 117.17 212.529 117.17 213.304C117.17 214.079 117.021 214.76 116.722 215.348C116.423 215.927 115.999 216.375 115.448 216.692C114.897 217.009 114.253 217.168 113.516 217.168C112.769 217.168 112.116 217.009 111.556 216.692C111.005 216.375 110.581 215.927 110.282 215.348C109.983 214.76 109.834 214.079 109.834 213.304C109.834 212.529 109.983 211.848 110.282 211.26C110.581 210.672 111.005 210.219 111.556 209.902C112.116 209.585 112.769 209.426 113.516 209.426ZM113.516 215.88C114.123 215.88 114.603 215.656 114.958 215.208C115.313 214.751 115.49 214.116 115.49 213.304C115.49 212.492 115.313 211.857 114.958 211.4C114.603 210.943 114.123 210.714 113.516 210.714C112.9 210.714 112.41 210.943 112.046 211.4C111.691 211.857 111.514 212.492 111.514 213.304C111.514 214.116 111.691 214.751 112.046 215.208C112.401 215.656 112.891 215.88 113.516 215.88ZM126.228 217H124.394L122.854 211.694H122.798L121.244 217H119.48L117.072 209.594H118.864L120.404 215.068H120.46L121.944 209.594H123.806L125.29 215.068H125.346L126.886 209.594H128.622L126.228 217Z" fill="black"/>
</svg>
