<svg width="1077" height="415" viewBox="0 0 1077 415" fill="none" xmlns="http://www.w3.org/2000/svg">
<path d="M109.422 50.5195C101.709 42.1537 71.9269 37.448 58 36.1408V344.63C76.4799 355.087 180.128 343.322 194.59 344.63C209.053 345.937 286.186 328.944 300.649 323.061C315.111 317.179 344.036 302.147 352.875 298.226C361.713 294.304 383.406 261.625 396.262 253.782C406.546 247.508 427.865 233.739 437.239 227.639C445.81 234.393 464.718 249.076 471.788 253.782C480.627 259.664 512.766 276.004 527.228 278.618C541.691 281.233 592.309 309.99 609.986 309.99C627.662 309.99 673.46 343.322 689.53 343.322C705.599 343.322 811.657 328.944 820.496 323.061C827.566 318.356 879.685 280.143 904.86 261.625C913.966 261.407 935.071 261.102 946.641 261.625C961.103 262.279 991.635 296.265 1014.94 309.99C1033.58 320.97 1063.41 336.787 1076 343.322V36.1408C1071.71 38.5373 1060.73 44.768 1051.09 50.5195C1039.04 57.7089 998.867 58.3626 991.635 60.9768C980.065 60.9768 956.818 21.7621 946.641 2.1548C899.236 1.28336 801.212 0.0633487 788.357 2.1548C772.287 4.76911 658.998 72.7412 646.142 75.3555C633.286 77.9698 576.24 81.2377 566.598 81.2377C556.957 81.2377 521.604 65.5518 512.766 60.9768C503.927 56.4017 446.077 36.1408 437.239 43.3302C428.401 50.5195 389.031 70.7804 383.406 81.2377C377.782 91.6949 360.106 110.649 352.875 116.531C345.762 122.316 328.545 124.941 315.749 126.891L315.111 126.988C302.256 128.949 304.666 119.799 274.938 110.649C245.209 101.499 221.908 98.8843 201.822 100.191C181.735 101.499 158.434 91.6949 140.758 81.2377C123.081 70.7804 119.064 60.9768 109.422 50.5195Z" fill="#CDDBEE" stroke="#3F73B4" stroke-width="2" stroke-dasharray="2 2"/>
<rect x="58.5" y="1.5" width="1017" height="387" stroke="#828282"/>
<path d="M28.952 17H21.32V16.488C21.32 15.7093 21.4693 15.0427 21.768 14.488C22.0667 13.9227 22.4133 13.4747 22.808 13.144C23.2027 12.8027 23.6773 12.456 24.232 12.104L25.768 11.128C26.216 10.8293 26.584 10.5093 26.872 10.168C27.16 9.816 27.304 9.38933 27.304 8.888C27.304 8.23733 27.128 7.74667 26.776 7.416C26.424 7.08533 25.9173 6.92 25.256 6.92C24.5947 6.92 24.0613 7.13867 23.656 7.576C23.2613 8.01333 23.0213 8.62133 22.936 9.4L21.32 9.24C21.3947 8.472 21.6187 7.81067 21.992 7.256C22.3653 6.70133 22.8347 6.28533 23.4 6.008C23.9653 5.72 24.584 5.576 25.256 5.576C25.9387 5.576 26.5627 5.69333 27.128 5.928C27.6933 6.16267 28.1467 6.52533 28.488 7.016C28.8293 7.50667 29 8.10933 29 8.824C29 9.42133 28.8827 9.93867 28.648 10.376C28.4133 10.8027 28.136 11.1493 27.816 11.416C27.496 11.672 27.1013 11.944 26.632 12.232L26.28 12.456L24.888 13.368C24.28 13.7627 23.8373 14.1467 23.56 14.52C23.2933 14.8933 23.144 15.2347 23.112 15.544H28.952V17ZM33.7385 17H32.1225V8.424H29.8825V7.304H30.2185C30.8585 7.304 31.3492 7.16533 31.6905 6.888C32.0425 6.6 32.2612 6.232 32.3465 5.784H33.7385V17ZM37.6114 15.016V17H35.6274V15.016H37.6114ZM43.223 5.56C44.4817 5.56 45.511 6.01867 46.311 6.936C47.1217 7.85333 47.527 9.34133 47.527 11.4C47.527 13.448 47.1217 14.9307 46.311 15.848C45.511 16.7653 44.4817 17.224 43.223 17.224C41.9643 17.224 40.935 16.7653 40.135 15.848C39.335 14.9307 38.935 13.448 38.935 11.4C38.935 9.34133 39.335 7.85333 40.135 6.936C40.935 6.01867 41.9643 5.56 43.223 5.56ZM43.223 15.88C44.0123 15.88 44.6417 15.5547 45.111 14.904C45.591 14.2427 45.831 13.0747 45.831 11.4C45.831 9.71467 45.591 8.54667 45.111 7.896C44.6417 7.23467 44.0123 6.904 43.223 6.904C42.4337 6.904 41.8043 7.23467 41.335 7.896C40.8657 8.54667 40.631 9.71467 40.631 11.4C40.631 13.0747 40.8657 14.2427 41.335 14.904C41.8043 15.5547 42.4337 15.88 43.223 15.88ZM52.2126 11.688H57.0446V13.176H52.2126V11.688Z" fill="black"/>
<path d="M24.176 145H22.56V136.424H20.32V135.304H20.656C21.296 135.304 21.7867 135.165 22.128 134.888C22.48 134.6 22.6987 134.232 22.784 133.784H24.176V145ZM29.5849 138.616C30.2249 138.616 30.7422 138.451 31.1369 138.12C31.5315 137.789 31.7289 137.341 31.7289 136.776C31.7289 136.2 31.5369 135.747 31.1529 135.416C30.7795 135.085 30.3049 134.92 29.7289 134.92C29.1635 134.92 28.6889 135.091 28.3049 135.432C27.9209 135.773 27.6862 136.259 27.6009 136.888L26.0009 136.728C26.1182 135.747 26.5075 134.979 27.1689 134.424C27.8409 133.859 28.6942 133.576 29.7289 133.576C30.4329 133.576 31.0622 133.704 31.6169 133.96C32.1715 134.205 32.6089 134.573 32.9289 135.064C33.2489 135.544 33.4089 136.115 33.4089 136.776C33.4089 137.309 33.2542 137.784 32.9449 138.2C32.6462 138.605 32.2515 138.915 31.7609 139.128V139.192C32.3582 139.384 32.8382 139.715 33.2009 140.184C33.5742 140.643 33.7609 141.208 33.7609 141.88C33.7609 142.957 33.3822 143.784 32.6249 144.36C31.8675 144.936 30.9022 145.224 29.7289 145.224C28.5875 145.224 27.6489 144.931 26.9129 144.344C26.1875 143.757 25.7449 142.899 25.5849 141.768L27.2489 141.592C27.3555 142.371 27.6222 142.947 28.0489 143.32C28.4862 143.693 29.0462 143.88 29.7289 143.88C30.4009 143.88 30.9555 143.704 31.3929 143.352C31.8409 142.989 32.0649 142.499 32.0649 141.88C32.0649 141.208 31.8409 140.707 31.3929 140.376C30.9449 140.035 30.3422 139.864 29.5849 139.864H28.5929V138.616H29.5849ZM37.0801 143.016V145H35.0961V143.016H37.0801ZM42.1158 141C41.5398 141 40.9638 140.861 40.3878 140.584C39.8118 140.307 39.3371 139.896 38.9638 139.352C38.5904 138.808 38.4038 138.147 38.4038 137.368C38.4038 136.536 38.5904 135.837 38.9638 135.272C39.3478 134.696 39.8331 134.269 40.4198 133.992C41.0064 133.715 41.6144 133.576 42.2438 133.576C42.9371 133.576 43.5718 133.709 44.1478 133.976C44.7238 134.232 45.2038 134.627 45.5878 135.16C45.8971 135.597 46.1318 136.184 46.2917 136.92C46.4624 137.656 46.5478 138.488 46.5478 139.416C46.5478 141.603 46.1371 143.117 45.3158 143.96C44.4944 144.803 43.4758 145.224 42.2598 145.224C41.4064 145.224 40.6491 144.995 39.9878 144.536C39.3371 144.067 38.8731 143.4 38.5958 142.536L40.2278 142.344C40.3771 142.792 40.6224 143.171 40.9638 143.48C41.3158 143.789 41.7478 143.944 42.2598 143.944C43.0064 143.944 43.6358 143.651 44.1478 143.064C44.6704 142.467 44.9318 141.416 44.9318 139.912V139.768H44.8678C44.5264 140.184 44.1104 140.493 43.6198 140.696C43.1398 140.899 42.6384 141 42.1158 141ZM42.2758 134.856C41.8811 134.856 41.5131 134.952 41.1718 135.144C40.8304 135.336 40.5531 135.613 40.3398 135.976C40.1371 136.339 40.0358 136.776 40.0358 137.288C40.0358 137.789 40.1371 138.227 40.3398 138.6C40.5531 138.963 40.8304 139.24 41.1718 139.432C41.5131 139.624 41.8811 139.72 42.2758 139.72C42.7131 139.72 43.1131 139.619 43.4758 139.416C43.8384 139.213 44.1264 138.931 44.3398 138.568C44.5531 138.195 44.6598 137.768 44.6598 137.288C44.6598 136.797 44.5531 136.371 44.3398 136.008C44.1264 135.635 43.8384 135.352 43.4758 135.16C43.1131 134.957 42.7131 134.856 42.2758 134.856ZM51.2283 139.688H56.0603V141.176H51.2283V139.688Z" fill="black"/>
<path d="M25.176 201H23.56V192.424H21.32V191.304H21.656C22.296 191.304 22.7867 191.165 23.128 190.888C23.48 190.6 23.6987 190.232 23.784 189.784H25.176V201ZM31.1449 189.56C32.4035 189.56 33.4329 190.019 34.2329 190.936C35.0435 191.853 35.4489 193.341 35.4489 195.4C35.4489 197.448 35.0435 198.931 34.2329 199.848C33.4329 200.765 32.4035 201.224 31.1449 201.224C29.8862 201.224 28.8569 200.765 28.0569 199.848C27.2569 198.931 26.8569 197.448 26.8569 195.4C26.8569 193.341 27.2569 191.853 28.0569 190.936C28.8569 190.019 29.8862 189.56 31.1449 189.56ZM31.1449 199.88C31.9342 199.88 32.5635 199.555 33.0329 198.904C33.5129 198.243 33.7529 197.075 33.7529 195.4C33.7529 193.715 33.5129 192.547 33.0329 191.896C32.5635 191.235 31.9342 190.904 31.1449 190.904C30.3555 190.904 29.7262 191.235 29.2569 191.896C28.7875 192.547 28.5529 193.715 28.5529 195.4C28.5529 197.075 28.7875 198.243 29.2569 198.904C29.7262 199.555 30.3555 199.88 31.1449 199.88ZM38.7676 199.016V201H36.7836V199.016H38.7676ZM44.3793 189.56C45.6379 189.56 46.6673 190.019 47.4673 190.936C48.2779 191.853 48.6833 193.341 48.6833 195.4C48.6833 197.448 48.2779 198.931 47.4673 199.848C46.6673 200.765 45.6379 201.224 44.3793 201.224C43.1206 201.224 42.0913 200.765 41.2913 199.848C40.4913 198.931 40.0913 197.448 40.0913 195.4C40.0913 193.341 40.4913 191.853 41.2913 190.936C42.0913 190.019 43.1206 189.56 44.3793 189.56ZM44.3793 199.88C45.1686 199.88 45.7979 199.555 46.2673 198.904C46.7473 198.243 46.9873 197.075 46.9873 195.4C46.9873 193.715 46.7473 192.547 46.2673 191.896C45.7979 191.235 45.1686 190.904 44.3793 190.904C43.5899 190.904 42.9606 191.235 42.4913 191.896C42.0219 192.547 41.7873 193.715 41.7873 195.4C41.7873 197.075 42.0219 198.243 42.4913 198.904C42.9606 199.555 43.5899 199.88 44.3793 199.88ZM53.3689 195.688H58.2009V197.176H53.3689V195.688Z" fill="black"/>
<path d="M31.288 263.616C31.928 263.616 32.4453 263.451 32.84 263.12C33.2347 262.789 33.432 262.341 33.432 261.776C33.432 261.2 33.24 260.747 32.856 260.416C32.4827 260.085 32.008 259.92 31.432 259.92C30.8667 259.92 30.392 260.091 30.008 260.432C29.624 260.773 29.3893 261.259 29.304 261.888L27.704 261.728C27.8213 260.747 28.2107 259.979 28.872 259.424C29.544 258.859 30.3973 258.576 31.432 258.576C32.136 258.576 32.7653 258.704 33.32 258.96C33.8747 259.205 34.312 259.573 34.632 260.064C34.952 260.544 35.112 261.115 35.112 261.776C35.112 262.309 34.9573 262.784 34.648 263.2C34.3493 263.605 33.9547 263.915 33.464 264.128V264.192C34.0613 264.384 34.5413 264.715 34.904 265.184C35.2773 265.643 35.464 266.208 35.464 266.88C35.464 267.957 35.0853 268.784 34.328 269.36C33.5707 269.936 32.6053 270.224 31.432 270.224C30.2907 270.224 29.352 269.931 28.616 269.344C27.8907 268.757 27.448 267.899 27.288 266.768L28.952 266.592C29.0587 267.371 29.3253 267.947 29.752 268.32C30.1893 268.693 30.7493 268.88 31.432 268.88C32.104 268.88 32.6587 268.704 33.096 268.352C33.544 267.989 33.768 267.499 33.768 266.88C33.768 266.208 33.544 265.707 33.096 265.376C32.648 265.035 32.0453 264.864 31.288 264.864H30.296V263.616H31.288ZM38.7833 268.016V270H36.7993V268.016H38.7833ZM43.8189 266C43.2429 266 42.6669 265.861 42.0909 265.584C41.5149 265.307 41.0402 264.896 40.6669 264.352C40.2935 263.808 40.1069 263.147 40.1069 262.368C40.1069 261.536 40.2935 260.837 40.6669 260.272C41.0509 259.696 41.5362 259.269 42.1229 258.992C42.7095 258.715 43.3175 258.576 43.9469 258.576C44.6402 258.576 45.2749 258.709 45.8509 258.976C46.4269 259.232 46.9069 259.627 47.2909 260.16C47.6002 260.597 47.8349 261.184 47.9949 261.92C48.1655 262.656 48.2509 263.488 48.2509 264.416C48.2509 266.603 47.8402 268.117 47.0189 268.96C46.1975 269.803 45.1789 270.224 43.9629 270.224C43.1095 270.224 42.3522 269.995 41.6909 269.536C41.0402 269.067 40.5762 268.4 40.2989 267.536L41.9309 267.344C42.0802 267.792 42.3255 268.171 42.6669 268.48C43.0189 268.789 43.4509 268.944 43.9629 268.944C44.7095 268.944 45.3389 268.651 45.8509 268.064C46.3735 267.467 46.6349 266.416 46.6349 264.912V264.768H46.5709C46.2295 265.184 45.8135 265.493 45.3229 265.696C44.8429 265.899 44.3415 266 43.8189 266ZM43.9789 259.856C43.5842 259.856 43.2162 259.952 42.8749 260.144C42.5335 260.336 42.2562 260.613 42.0429 260.976C41.8402 261.339 41.7389 261.776 41.7389 262.288C41.7389 262.789 41.8402 263.227 42.0429 263.6C42.2562 263.963 42.5335 264.24 42.8749 264.432C43.2162 264.624 43.5842 264.72 43.9789 264.72C44.4162 264.72 44.8162 264.619 45.1789 264.416C45.5415 264.213 45.8295 263.931 46.0429 263.568C46.2562 263.195 46.3629 262.768 46.3629 262.288C46.3629 261.797 46.2562 261.371 46.0429 261.008C45.8295 260.635 45.5415 260.352 45.1789 260.16C44.8162 259.957 44.4162 259.856 43.9789 259.856ZM52.9314 264.688H57.7634V266.176H52.9314V264.688Z" fill="black"/>
<path d="M32.288 302.616C32.928 302.616 33.4453 302.451 33.84 302.12C34.2347 301.789 34.432 301.341 34.432 300.776C34.432 300.2 34.24 299.747 33.856 299.416C33.4827 299.085 33.008 298.92 32.432 298.92C31.8667 298.92 31.392 299.091 31.008 299.432C30.624 299.773 30.3893 300.259 30.304 300.888L28.704 300.728C28.8213 299.747 29.2107 298.979 29.872 298.424C30.544 297.859 31.3973 297.576 32.432 297.576C33.136 297.576 33.7653 297.704 34.32 297.96C34.8747 298.205 35.312 298.573 35.632 299.064C35.952 299.544 36.112 300.115 36.112 300.776C36.112 301.309 35.9573 301.784 35.648 302.2C35.3493 302.605 34.9547 302.915 34.464 303.128V303.192C35.0613 303.384 35.5413 303.715 35.904 304.184C36.2773 304.643 36.464 305.208 36.464 305.88C36.464 306.957 36.0853 307.784 35.328 308.36C34.5707 308.936 33.6053 309.224 32.432 309.224C31.2907 309.224 30.352 308.931 29.616 308.344C28.8907 307.757 28.448 306.899 28.288 305.768L29.952 305.592C30.0587 306.371 30.3253 306.947 30.752 307.32C31.1893 307.693 31.7493 307.88 32.432 307.88C33.104 307.88 33.6587 307.704 34.096 307.352C34.544 306.989 34.768 306.499 34.768 305.88C34.768 305.208 34.544 304.707 34.096 304.376C33.648 304.035 33.0453 303.864 32.288 303.864H31.296V302.616H32.288ZM39.7833 307.016V309H37.7993V307.016H39.7833ZM45.3949 297.56C46.6535 297.56 47.6829 298.019 48.4829 298.936C49.2935 299.853 49.6989 301.341 49.6989 303.4C49.6989 305.448 49.2935 306.931 48.4829 307.848C47.6829 308.765 46.6535 309.224 45.3949 309.224C44.1362 309.224 43.1069 308.765 42.3069 307.848C41.5069 306.931 41.1069 305.448 41.1069 303.4C41.1069 301.341 41.5069 299.853 42.3069 298.936C43.1069 298.019 44.1362 297.56 45.3949 297.56ZM45.3949 307.88C46.1842 307.88 46.8135 307.555 47.2829 306.904C47.7629 306.243 48.0029 305.075 48.0029 303.4C48.0029 301.715 47.7629 300.547 47.2829 299.896C46.8135 299.235 46.1842 298.904 45.3949 298.904C44.6055 298.904 43.9762 299.235 43.5069 299.896C43.0375 300.547 42.8029 301.715 42.8029 303.4C42.8029 305.075 43.0375 306.243 43.5069 306.904C43.9762 307.555 44.6055 307.88 45.3949 307.88ZM54.3845 303.688H59.2165V305.176H54.3845V303.688Z" fill="black"/>
<path d="M31.848 373.56C33.1067 373.56 34.136 374.019 34.936 374.936C35.7467 375.853 36.152 377.341 36.152 379.4C36.152 381.448 35.7467 382.931 34.936 383.848C34.136 384.765 33.1067 385.224 31.848 385.224C30.5893 385.224 29.56 384.765 28.76 383.848C27.96 382.931 27.56 381.448 27.56 379.4C27.56 377.341 27.96 375.853 28.76 374.936C29.56 374.019 30.5893 373.56 31.848 373.56ZM31.848 383.88C32.6373 383.88 33.2667 383.555 33.736 382.904C34.216 382.243 34.456 381.075 34.456 379.4C34.456 377.715 34.216 376.547 33.736 375.896C33.2667 375.235 32.6373 374.904 31.848 374.904C31.0587 374.904 30.4293 375.235 29.96 375.896C29.4907 376.547 29.256 377.715 29.256 379.4C29.256 381.075 29.4907 382.243 29.96 382.904C30.4293 383.555 31.0587 383.88 31.848 383.88ZM39.4708 383.016V385H37.4868V383.016H39.4708ZM45.0824 373.56C46.341 373.56 47.3704 374.019 48.1704 374.936C48.981 375.853 49.3864 377.341 49.3864 379.4C49.3864 381.448 48.981 382.931 48.1704 383.848C47.3704 384.765 46.341 385.224 45.0824 385.224C43.8237 385.224 42.7944 384.765 41.9944 383.848C41.1944 382.931 40.7944 381.448 40.7944 379.4C40.7944 377.341 41.1944 375.853 41.9944 374.936C42.7944 374.019 43.8237 373.56 45.0824 373.56ZM45.0824 383.88C45.8717 383.88 46.501 383.555 46.9704 382.904C47.4504 382.243 47.6904 381.075 47.6904 379.4C47.6904 377.715 47.4504 376.547 46.9704 375.896C46.501 375.235 45.8717 374.904 45.0824 374.904C44.293 374.904 43.6637 375.235 43.1944 375.896C42.725 376.547 42.4904 377.715 42.4904 379.4C42.4904 381.075 42.725 382.243 43.1944 382.904C43.6637 383.555 44.293 383.88 45.0824 383.88ZM54.072 379.688H58.904V381.176H54.072V379.688Z" fill="black"/>
<path d="M58.176 411H56.56V402.424H54.32V401.304H54.656C55.296 401.304 55.7867 401.165 56.128 400.888C56.48 400.6 56.6987 400.232 56.784 399.784H58.176V411ZM67.2489 411H59.6169V410.488C59.6169 409.709 59.7662 409.043 60.0649 408.488C60.3635 407.923 60.7102 407.475 61.1049 407.144C61.4995 406.803 61.9742 406.456 62.5289 406.104L64.0649 405.128C64.5129 404.829 64.8809 404.509 65.1689 404.168C65.4569 403.816 65.6009 403.389 65.6009 402.888C65.6009 402.237 65.4249 401.747 65.0729 401.416C64.7209 401.085 64.2142 400.92 63.5529 400.92C62.8915 400.92 62.3582 401.139 61.9529 401.576C61.5582 402.013 61.3182 402.621 61.2329 403.4L59.6169 403.24C59.6915 402.472 59.9155 401.811 60.2889 401.256C60.6622 400.701 61.1315 400.285 61.6969 400.008C62.2622 399.72 62.8809 399.576 63.5529 399.576C64.2355 399.576 64.8595 399.693 65.4249 399.928C65.9902 400.163 66.4435 400.525 66.7849 401.016C67.1262 401.507 67.2969 402.109 67.2969 402.824C67.2969 403.421 67.1795 403.939 66.9449 404.376C66.7102 404.803 66.4329 405.149 66.1129 405.416C65.7929 405.672 65.3982 405.944 64.9289 406.232L64.5769 406.456L63.1849 407.368C62.5769 407.763 62.1342 408.147 61.8569 408.52C61.5902 408.893 61.4409 409.235 61.4089 409.544H67.2489V411ZM77.1463 411C77.0716 410.925 77.0076 410.787 76.9543 410.584C76.9116 410.381 76.8903 410.147 76.8903 409.88C76.6343 410.317 76.2343 410.648 75.6903 410.872C75.1569 411.085 74.6076 411.192 74.0423 411.192C73.5409 411.192 73.0769 411.091 72.6503 410.888C72.2236 410.675 71.8823 410.381 71.6263 410.008C71.3809 409.624 71.2583 409.176 71.2583 408.664C71.2583 407.8 71.5569 407.165 72.1543 406.76C72.7516 406.344 73.6529 406.072 74.8583 405.944C75.6369 405.869 76.1649 405.757 76.4423 405.608C76.7303 405.459 76.8743 405.245 76.8743 404.968C76.8743 404.125 76.2823 403.704 75.0983 403.704C74.6396 403.704 74.2236 403.827 73.8503 404.072C73.4769 404.307 73.2156 404.659 73.0663 405.128L71.5783 404.776C71.7596 404.029 72.1756 403.443 72.8263 403.016C73.4769 402.579 74.2556 402.36 75.1623 402.36C76.3143 402.36 77.1569 402.6 77.6903 403.08C78.2343 403.549 78.5063 404.168 78.5063 404.936V409.176C78.5063 409.709 78.5169 410.104 78.5383 410.36C78.5703 410.605 78.6343 410.819 78.7303 411H77.1463ZM76.8743 406.648C76.7569 406.776 76.5063 406.883 76.1223 406.968C75.7489 407.043 75.2689 407.117 74.6823 407.192C74.1809 407.256 73.7596 407.411 73.4183 407.656C73.0876 407.891 72.9223 408.227 72.9223 408.664C72.9223 409.069 73.0503 409.379 73.3063 409.592C73.5623 409.795 73.9143 409.896 74.3623 409.896C74.7676 409.896 75.1623 409.821 75.5463 409.672C75.9303 409.512 76.2449 409.267 76.4903 408.936C76.7463 408.595 76.8743 408.173 76.8743 407.672V406.648ZM89.1414 402.36C89.632 402.36 90.0907 402.472 90.5174 402.696C90.9547 402.909 91.3067 403.245 91.5734 403.704C91.84 404.163 91.9734 404.728 91.9734 405.4V411H90.3414V405.896C90.3414 405.128 90.1974 404.579 89.9094 404.248C89.6214 403.907 89.1894 403.736 88.6134 403.736C88.272 403.736 87.9574 403.837 87.6694 404.04C87.3814 404.243 87.1467 404.541 86.9654 404.936C86.784 405.32 86.6934 405.789 86.6934 406.344V411H85.0614V405.896C85.0614 405.128 84.9174 404.579 84.6294 404.248C84.3414 403.907 83.9094 403.736 83.3334 403.736C82.992 403.736 82.6774 403.837 82.3894 404.04C82.1014 404.243 81.8667 404.541 81.6854 404.936C81.504 405.331 81.4134 405.805 81.4134 406.36V411H79.7814V402.552H81.3334V403.688H81.3974C81.7067 403.229 82.0694 402.893 82.4854 402.68C82.912 402.467 83.3707 402.36 83.8614 402.36C84.384 402.36 84.864 402.477 85.3014 402.712C85.7387 402.936 86.0747 403.283 86.3094 403.752C86.6934 403.283 87.1094 402.936 87.5574 402.712C88.016 402.477 88.544 402.36 89.1414 402.36Z" fill="black"/>
<path d="M71.688 393.928V389.096H73.176V393.928H71.688Z" fill="black"/>
<path d="M533.176 412H531.56V403.424H529.32V402.304H529.656C530.296 402.304 530.787 402.165 531.128 401.888C531.48 401.6 531.699 401.232 531.784 400.784H533.176V412ZM542.249 412H534.617V411.488C534.617 410.709 534.766 410.043 535.065 409.488C535.364 408.923 535.71 408.475 536.105 408.144C536.5 407.803 536.974 407.456 537.529 407.104L539.065 406.128C539.513 405.829 539.881 405.509 540.169 405.168C540.457 404.816 540.601 404.389 540.601 403.888C540.601 403.237 540.425 402.747 540.073 402.416C539.721 402.085 539.214 401.92 538.553 401.92C537.892 401.92 537.358 402.139 536.953 402.576C536.558 403.013 536.318 403.621 536.233 404.4L534.617 404.24C534.692 403.472 534.916 402.811 535.289 402.256C535.662 401.701 536.132 401.285 536.697 401.008C537.262 400.72 537.881 400.576 538.553 400.576C539.236 400.576 539.86 400.693 540.425 400.928C540.99 401.163 541.444 401.525 541.785 402.016C542.126 402.507 542.297 403.109 542.297 403.824C542.297 404.421 542.18 404.939 541.945 405.376C541.71 405.803 541.433 406.149 541.113 406.416C540.793 406.672 540.398 406.944 539.929 407.232L539.577 407.456L538.185 408.368C537.577 408.763 537.134 409.147 536.857 409.52C536.59 409.893 536.441 410.235 536.409 410.544H542.249V412ZM550.818 412.192C550.242 412.192 549.73 412.091 549.282 411.888C548.845 411.675 548.509 411.387 548.274 411.024H548.21V414.944H546.578V403.552H548.13V404.64H548.194C548.429 404.235 548.776 403.92 549.234 403.696C549.693 403.472 550.221 403.36 550.818 403.36C551.565 403.36 552.226 403.547 552.802 403.92C553.389 404.283 553.842 404.8 554.162 405.472C554.493 406.133 554.658 406.901 554.658 407.776C554.658 408.651 554.493 409.424 554.162 410.096C553.842 410.757 553.389 411.275 552.802 411.648C552.226 412.011 551.565 412.192 550.818 412.192ZM550.53 404.688C549.794 404.688 549.202 404.965 548.754 405.52C548.317 406.075 548.098 406.827 548.098 407.776C548.098 408.725 548.317 409.477 548.754 410.032C549.202 410.587 549.794 410.864 550.53 410.864C551.288 410.864 551.885 410.592 552.322 410.048C552.77 409.493 552.994 408.736 552.994 407.776C552.994 406.816 552.77 406.064 552.322 405.52C551.885 404.965 551.288 404.688 550.53 404.688ZM565.11 403.36C565.601 403.36 566.059 403.472 566.486 403.696C566.923 403.909 567.275 404.245 567.542 404.704C567.809 405.163 567.942 405.728 567.942 406.4V412H566.31V406.896C566.31 406.128 566.166 405.579 565.878 405.248C565.59 404.907 565.158 404.736 564.582 404.736C564.241 404.736 563.926 404.837 563.638 405.04C563.35 405.243 563.115 405.541 562.934 405.936C562.753 406.32 562.662 406.789 562.662 407.344V412H561.03V406.896C561.03 406.128 560.886 405.579 560.598 405.248C560.31 404.907 559.878 404.736 559.302 404.736C558.961 404.736 558.646 404.837 558.358 405.04C558.07 405.243 557.835 405.541 557.654 405.936C557.473 406.331 557.382 406.805 557.382 407.36V412H555.75V403.552H557.302V404.688H557.366C557.675 404.229 558.038 403.893 558.454 403.68C558.881 403.467 559.339 403.36 559.83 403.36C560.353 403.36 560.833 403.477 561.27 403.712C561.707 403.936 562.043 404.283 562.278 404.752C562.662 404.283 563.078 403.936 563.526 403.712C563.985 403.477 564.513 403.36 565.11 403.36Z" fill="black"/>
<path d="M546.688 394.928V390.096H548.176V394.928H546.688Z" fill="black"/>
<path d="M1040.18 411H1038.56V402.424H1036.32V401.304H1036.66C1037.3 401.304 1037.79 401.165 1038.13 400.888C1038.48 400.6 1038.7 400.232 1038.78 399.784H1040.18V411ZM1049.25 411H1041.62V410.488C1041.62 409.709 1041.77 409.043 1042.06 408.488C1042.36 407.923 1042.71 407.475 1043.1 407.144C1043.5 406.803 1043.97 406.456 1044.53 406.104L1046.06 405.128C1046.51 404.829 1046.88 404.509 1047.17 404.168C1047.46 403.816 1047.6 403.389 1047.6 402.888C1047.6 402.237 1047.42 401.747 1047.07 401.416C1046.72 401.085 1046.21 400.92 1045.55 400.92C1044.89 400.92 1044.36 401.139 1043.95 401.576C1043.56 402.013 1043.32 402.621 1043.23 403.4L1041.62 403.24C1041.69 402.472 1041.92 401.811 1042.29 401.256C1042.66 400.701 1043.13 400.285 1043.7 400.008C1044.26 399.72 1044.88 399.576 1045.55 399.576C1046.24 399.576 1046.86 399.693 1047.42 399.928C1047.99 400.163 1048.44 400.525 1048.78 401.016C1049.13 401.507 1049.3 402.109 1049.3 402.824C1049.3 403.421 1049.18 403.939 1048.94 404.376C1048.71 404.803 1048.43 405.149 1048.11 405.416C1047.79 405.672 1047.4 405.944 1046.93 406.232L1046.58 406.456L1045.18 407.368C1044.58 407.763 1044.13 408.147 1043.86 408.52C1043.59 408.893 1043.44 409.235 1043.41 409.544H1049.25V411ZM1059.15 411C1059.07 410.925 1059.01 410.787 1058.95 410.584C1058.91 410.381 1058.89 410.147 1058.89 409.88C1058.63 410.317 1058.23 410.648 1057.69 410.872C1057.16 411.085 1056.61 411.192 1056.04 411.192C1055.54 411.192 1055.08 411.091 1054.65 410.888C1054.22 410.675 1053.88 410.381 1053.63 410.008C1053.38 409.624 1053.26 409.176 1053.26 408.664C1053.26 407.8 1053.56 407.165 1054.15 406.76C1054.75 406.344 1055.65 406.072 1056.86 405.944C1057.64 405.869 1058.16 405.757 1058.44 405.608C1058.73 405.459 1058.87 405.245 1058.87 404.968C1058.87 404.125 1058.28 403.704 1057.1 403.704C1056.64 403.704 1056.22 403.827 1055.85 404.072C1055.48 404.307 1055.22 404.659 1055.07 405.128L1053.58 404.776C1053.76 404.029 1054.18 403.443 1054.83 403.016C1055.48 402.579 1056.26 402.36 1057.16 402.36C1058.31 402.36 1059.16 402.6 1059.69 403.08C1060.23 403.549 1060.51 404.168 1060.51 404.936V409.176C1060.51 409.709 1060.52 410.104 1060.54 410.36C1060.57 410.605 1060.63 410.819 1060.73 411H1059.15ZM1058.87 406.648C1058.76 406.776 1058.51 406.883 1058.12 406.968C1057.75 407.043 1057.27 407.117 1056.68 407.192C1056.18 407.256 1055.76 407.411 1055.42 407.656C1055.09 407.891 1054.92 408.227 1054.92 408.664C1054.92 409.069 1055.05 409.379 1055.31 409.592C1055.56 409.795 1055.91 409.896 1056.36 409.896C1056.77 409.896 1057.16 409.821 1057.55 409.672C1057.93 409.512 1058.24 409.267 1058.49 408.936C1058.75 408.595 1058.87 408.173 1058.87 407.672V406.648ZM1071.14 402.36C1071.63 402.36 1072.09 402.472 1072.52 402.696C1072.95 402.909 1073.31 403.245 1073.57 403.704C1073.84 404.163 1073.97 404.728 1073.97 405.4V411H1072.34V405.896C1072.34 405.128 1072.2 404.579 1071.91 404.248C1071.62 403.907 1071.19 403.736 1070.61 403.736C1070.27 403.736 1069.96 403.837 1069.67 404.04C1069.38 404.243 1069.15 404.541 1068.97 404.936C1068.78 405.32 1068.69 405.789 1068.69 406.344V411H1067.06V405.896C1067.06 405.128 1066.92 404.579 1066.63 404.248C1066.34 403.907 1065.91 403.736 1065.33 403.736C1064.99 403.736 1064.68 403.837 1064.39 404.04C1064.1 404.243 1063.87 404.541 1063.69 404.936C1063.5 405.331 1063.41 405.805 1063.41 406.36V411H1061.78V402.552H1063.33V403.688H1063.4C1063.71 403.229 1064.07 402.893 1064.49 402.68C1064.91 402.467 1065.37 402.36 1065.86 402.36C1066.38 402.36 1066.86 402.477 1067.3 402.712C1067.74 402.936 1068.07 403.283 1068.31 403.752C1068.69 403.283 1069.11 402.936 1069.56 402.712C1070.02 402.477 1070.54 402.36 1071.14 402.36Z" fill="black"/>
<path d="M1053.69 393.928V389.096H1055.18V393.928H1053.69Z" fill="black"/>
<path d="M178.717 237.343C167.147 234.954 94.085 198.124 59 180.007V295.874C70.2486 301.249 101.263 310.447 135.33 304.236C177.914 296.471 199.608 304.236 218.891 304.236C234.318 304.236 260.136 309.412 271.117 312L310.487 295.874C323.61 287.712 349.857 270.551 349.857 267.206C349.857 263.861 377.711 224.005 391.638 204.494L438.239 173.437C464.754 186.378 520.193 213.453 529.835 218.231C539.477 223.009 586.882 259.641 609.379 277.359C618.485 280.943 639.268 287.632 649.552 285.721C662.408 283.332 760.432 277.957 781.322 277.359C802.212 276.762 848.814 165.673 902.646 212.259C945.713 249.527 1036.83 289.105 1077 304.236V180.007C1067.63 173.039 1043.58 154.205 1022.36 134.616C1001.15 115.026 937.999 70.7094 909.074 51L860.866 61.7506C849.082 78.2746 824.71 112.517 821.496 117.295C818.282 122.073 787.482 136.805 772.484 143.574C761.503 143.176 738.738 142.619 735.524 143.574C732.31 144.53 707.403 138 695.35 134.616C682.763 134.018 655.98 133.182 649.552 134.616C643.125 136.049 620.092 151.538 609.379 159.103C598.398 161.293 574.026 165.673 564.384 165.673C552.332 165.673 522.604 151.936 517.783 148.352C512.962 144.769 490.465 123.268 481.627 111.323C474.556 101.767 449.756 94.9977 438.239 92.8078C428.597 100.572 407.868 117.534 402.083 123.268C394.852 130.435 354.678 196.73 349.857 204.494C345.036 212.259 310.487 223.606 294.418 224.801C278.348 225.995 242.995 237.343 230.943 237.343C218.891 237.343 193.18 240.33 178.717 237.343Z" fill="#85A6D0"/>
<line x1="58.9995" y1="140.5" x2="1077" y2="139.5" stroke="#828282"/>
<line x1="56.9995" y1="304.5" x2="1075" y2="303.5" stroke="#828282"/>
<path d="M5.334 264.89H14V266.43H5.334V269.776H4.004L4.004 261.544H5.334L5.334 264.89ZM14 257.13C13.9347 257.195 13.8133 257.251 13.636 257.298C13.4587 257.335 13.2533 257.354 13.02 257.354C13.4027 257.578 13.692 257.928 13.888 258.404C14.0747 258.871 14.168 259.351 14.168 259.846C14.168 260.285 14.0793 260.691 13.902 261.064C13.7153 261.437 13.4587 261.736 13.132 261.96C12.796 262.175 12.404 262.282 11.956 262.282C11.2 262.282 10.6447 262.021 10.29 261.498C9.926 260.975 9.688 260.187 9.576 259.132C9.51067 258.451 9.41267 257.989 9.282 257.746C9.15133 257.494 8.96467 257.368 8.722 257.368C7.98467 257.368 7.616 257.886 7.616 258.922C7.616 259.323 7.72333 259.687 7.938 260.014C8.14333 260.341 8.45133 260.569 8.862 260.7L8.554 262.002C7.90067 261.843 7.38733 261.479 7.014 260.91C6.63133 260.341 6.44 259.659 6.44 258.866C6.44 257.858 6.65 257.121 7.07 256.654C7.48067 256.178 8.022 255.94 8.694 255.94H12.404C12.8707 255.94 13.216 255.931 13.44 255.912C13.6547 255.884 13.8413 255.828 14 255.744V257.13ZM10.192 257.368C10.304 257.471 10.3973 257.69 10.472 258.026C10.5373 258.353 10.6027 258.773 10.668 259.286C10.724 259.725 10.8593 260.093 11.074 260.392C11.2793 260.681 11.5733 260.826 11.956 260.826C12.3107 260.826 12.5813 260.714 12.768 260.49C12.9453 260.266 13.034 259.958 13.034 259.566C13.034 259.211 12.9687 258.866 12.838 258.53C12.698 258.194 12.4833 257.919 12.194 257.704C11.8953 257.48 11.5267 257.368 11.088 257.368H10.192ZM7.728 253.466V253.41C7.35467 253.214 7.04667 252.925 6.804 252.542C6.56133 252.159 6.44 251.716 6.44 251.212C6.44 250.979 6.46333 250.759 6.51 250.554H7.882C7.84467 250.815 7.826 251.058 7.826 251.282C7.826 251.926 8.008 252.439 8.372 252.822C8.72667 253.205 9.296 253.396 10.08 253.396H14V254.824H6.608V253.466H7.728ZM13.482 243.155C14.602 243.155 15.4233 243.473 15.946 244.107C16.478 244.742 16.744 245.577 16.744 246.613C16.744 247.444 16.5527 248.158 16.17 248.755C15.7873 249.343 15.1993 249.749 14.406 249.973L14.112 248.601C14.6347 248.461 15.008 248.228 15.232 247.901C15.456 247.565 15.568 247.136 15.568 246.613C15.568 245.26 14.8493 244.583 13.412 244.583H12.67V244.639C12.9593 244.845 13.188 245.134 13.356 245.507C13.524 245.881 13.608 246.31 13.608 246.795C13.608 247.43 13.4587 247.999 13.16 248.503C12.8613 248.998 12.4413 249.385 11.9 249.665C11.3587 249.945 10.7333 250.085 10.024 250.085C9.324 250.085 8.70333 249.945 8.162 249.665C7.61133 249.385 7.18667 248.998 6.888 248.503C6.58933 247.999 6.44 247.43 6.44 246.795C6.44 246.291 6.53333 245.843 6.72 245.451C6.89733 245.059 7.14467 244.765 7.462 244.569V244.513H6.608V243.155H13.482ZM12.474 246.557C12.474 245.932 12.25 245.433 11.802 245.059C11.354 244.686 10.7613 244.499 10.024 244.499C9.296 244.499 8.71267 244.686 8.274 245.059C7.826 245.433 7.602 245.932 7.602 246.557C7.602 247.183 7.826 247.687 8.274 248.069C8.71267 248.443 9.296 248.629 10.024 248.629C10.752 248.629 11.3447 248.443 11.802 248.069C12.25 247.687 12.474 247.183 12.474 246.557ZM11.844 235.377C12.488 235.582 13.0387 235.956 13.496 236.497C13.944 237.038 14.168 237.804 14.168 238.793C14.168 239.474 14.0093 240.081 13.692 240.613C13.3653 241.136 12.9127 241.542 12.334 241.831C11.746 242.12 11.074 242.265 10.318 242.265C9.55267 242.265 8.876 242.125 8.288 241.845C7.7 241.556 7.24733 241.154 6.93 240.641C6.60333 240.118 6.44 239.507 6.44 238.807C6.44 238.126 6.594 237.524 6.902 237.001C7.20067 236.469 7.63467 236.058 8.204 235.769C8.764 235.47 9.43133 235.321 10.206 235.321C10.402 235.321 10.5513 235.326 10.654 235.335V240.823C11.3447 240.804 11.9093 240.613 12.348 240.249C12.7867 239.876 13.006 239.39 13.006 238.793C13.006 238.224 12.8753 237.785 12.614 237.477C12.3433 237.169 12.0307 236.95 11.676 236.819L11.844 235.377ZM7.602 238.807C7.602 239.386 7.79333 239.848 8.176 240.193C8.54933 240.529 9.01133 240.73 9.562 240.795V236.777C9.002 236.842 8.53533 237.048 8.162 237.393C7.78867 237.738 7.602 238.21 7.602 238.807ZM12.768 230.907H14C14.0187 231.112 14.028 231.462 14.028 231.957C14.028 232.648 13.916 233.142 13.692 233.441C13.468 233.73 13.0387 233.875 12.404 233.875H7.686V235.093H6.608V233.875H4.522L4.522 232.447H6.608V230.823H7.686V232.447H12.026C12.3527 232.447 12.5627 232.386 12.656 232.265C12.7493 232.144 12.796 231.924 12.796 231.607L12.768 230.907ZM10.066 223.27V225.748H14L14 227.288H4.004V222.654C4.004 221.552 4.27933 220.703 4.83 220.106C5.37133 219.499 6.10867 219.196 7.042 219.196C7.80733 219.196 8.44667 219.401 8.96 219.812C9.464 220.222 9.79533 220.81 9.954 221.576L14 219.042V220.848L10.066 223.27ZM8.778 222.85C8.778 222.168 8.62867 221.65 8.33 221.296C8.03133 220.941 7.602 220.764 7.042 220.764C6.482 220.764 6.05267 220.941 5.754 221.296C5.446 221.65 5.292 222.168 5.292 222.85V225.748H8.778V222.85ZM14 213.544C13.9347 213.609 13.8133 213.665 13.636 213.712C13.4587 213.749 13.2533 213.768 13.02 213.768C13.4027 213.992 13.692 214.342 13.888 214.818C14.0747 215.285 14.168 215.765 14.168 216.26C14.168 216.699 14.0793 217.105 13.902 217.478C13.7153 217.851 13.4587 218.15 13.132 218.374C12.796 218.589 12.404 218.696 11.956 218.696C11.2 218.696 10.6447 218.435 10.29 217.912C9.926 217.389 9.688 216.601 9.576 215.546C9.51067 214.865 9.41267 214.403 9.282 214.16C9.15133 213.908 8.96467 213.782 8.722 213.782C7.98467 213.782 7.616 214.3 7.616 215.336C7.616 215.737 7.72333 216.101 7.938 216.428C8.14333 216.755 8.45133 216.983 8.862 217.114L8.554 218.416C7.90067 218.257 7.38733 217.893 7.014 217.324C6.63133 216.755 6.44 216.073 6.44 215.28C6.44 214.272 6.65 213.535 7.07 213.068C7.48067 212.592 8.022 212.354 8.694 212.354H12.404C12.8707 212.354 13.216 212.345 13.44 212.326C13.6547 212.298 13.8413 212.242 14 212.158V213.544ZM10.192 213.782C10.304 213.885 10.3973 214.104 10.472 214.44C10.5373 214.767 10.6027 215.187 10.668 215.7C10.724 216.139 10.8593 216.507 11.074 216.806C11.2793 217.095 11.5733 217.24 11.956 217.24C12.3107 217.24 12.5813 217.128 12.768 216.904C12.9453 216.68 13.034 216.372 13.034 215.98C13.034 215.625 12.9687 215.28 12.838 214.944C12.698 214.608 12.4833 214.333 12.194 214.118C11.8953 213.894 11.5267 213.782 11.088 213.782H10.192ZM7.588 209.824C7.196 209.554 6.90667 209.222 6.72 208.83C6.53333 208.438 6.44 208.004 6.44 207.528C6.44 207.062 6.538 206.632 6.734 206.24C6.92067 205.839 7.21467 205.517 7.616 205.274C8.008 205.032 8.50267 204.91 9.1 204.91H14V206.338H9.534C8.85267 206.338 8.36733 206.474 8.078 206.744C7.78867 207.015 7.644 207.426 7.644 207.976C7.644 208.294 7.73267 208.592 7.91 208.872C8.08733 209.152 8.34867 209.381 8.694 209.558C9.03933 209.726 9.45467 209.81 9.94 209.81H14V211.238H6.608V209.88H7.588V209.824ZM13.482 197.081C14.602 197.081 15.4233 197.398 15.946 198.033C16.478 198.668 16.744 199.503 16.744 200.539C16.744 201.37 16.5527 202.084 16.17 202.681C15.7873 203.269 15.1993 203.675 14.406 203.899L14.112 202.527C14.6347 202.387 15.008 202.154 15.232 201.827C15.456 201.491 15.568 201.062 15.568 200.539C15.568 199.186 14.8493 198.509 13.412 198.509H12.67V198.565C12.9593 198.77 13.188 199.06 13.356 199.433C13.524 199.806 13.608 200.236 13.608 200.721C13.608 201.356 13.4587 201.925 13.16 202.429C12.8613 202.924 12.4413 203.311 11.9 203.591C11.3587 203.871 10.7333 204.011 10.024 204.011C9.324 204.011 8.70333 203.871 8.162 203.591C7.61133 203.311 7.18667 202.924 6.888 202.429C6.58933 201.925 6.44 201.356 6.44 200.721C6.44 200.217 6.53333 199.769 6.72 199.377C6.89733 198.985 7.14467 198.691 7.462 198.495V198.439H6.608V197.081H13.482ZM12.474 200.483C12.474 199.858 12.25 199.358 11.802 198.985C11.354 198.612 10.7613 198.425 10.024 198.425C9.296 198.425 8.71267 198.612 8.274 198.985C7.826 199.358 7.602 199.858 7.602 200.483C7.602 201.108 7.826 201.612 8.274 201.995C8.71267 202.368 9.296 202.555 10.024 202.555C10.752 202.555 11.3447 202.368 11.802 201.995C12.25 201.612 12.474 201.108 12.474 200.483ZM11.844 189.303C12.488 189.508 13.0387 189.881 13.496 190.423C13.944 190.964 14.168 191.729 14.168 192.719C14.168 193.4 14.0093 194.007 13.692 194.539C13.3653 195.061 12.9127 195.467 12.334 195.757C11.746 196.046 11.074 196.191 10.318 196.191C9.55267 196.191 8.876 196.051 8.288 195.771C7.7 195.481 7.24733 195.08 6.93 194.567C6.60333 194.044 6.44 193.433 6.44 192.733C6.44 192.051 6.594 191.449 6.902 190.927C7.20067 190.395 7.63467 189.984 8.204 189.695C8.764 189.396 9.43133 189.247 10.206 189.247C10.402 189.247 10.5513 189.251 10.654 189.261V194.749C11.3447 194.73 11.9093 194.539 12.348 194.175C12.7867 193.801 13.006 193.316 13.006 192.719C13.006 192.149 12.8753 191.711 12.614 191.403C12.3433 191.095 12.0307 190.875 11.676 190.745L11.844 189.303ZM7.602 192.733C7.602 193.311 7.79333 193.773 8.176 194.119C8.54933 194.455 9.01133 194.655 9.562 194.721V190.703C9.002 190.768 8.53533 190.973 8.162 191.319C7.78867 191.664 7.602 192.135 7.602 192.733Z" fill="#3D3D3D"/>
</svg>
