<svg width="1079" height="415" viewBox="0 0 1079 415" fill="none" xmlns="http://www.w3.org/2000/svg">
<path d="M110.422 50.5195C102.709 42.1537 72.9269 37.448 59 36.1408V344.63C77.4799 355.087 181.128 343.322 195.59 344.63C210.053 345.937 287.186 328.944 301.649 323.061C316.111 317.179 345.036 302.147 353.875 298.226C362.713 294.304 384.406 261.625 397.262 253.782C407.546 247.508 428.865 233.739 438.239 227.639C446.81 234.393 465.718 249.076 472.788 253.782C481.627 259.664 513.766 276.004 528.228 278.618C542.691 281.233 593.309 309.99 610.986 309.99C628.662 309.99 674.46 343.322 690.53 343.322C706.599 343.322 812.657 328.944 821.496 323.061C828.566 318.356 880.685 280.143 905.86 261.625C914.966 261.407 936.071 261.102 947.641 261.625C962.103 262.279 992.635 296.265 1015.94 309.99C1034.58 320.97 1064.41 336.787 1077 343.322V36.1408C1072.71 38.5373 1061.73 44.768 1052.09 50.5195C1040.04 57.7089 999.867 58.3626 992.635 60.9768C981.065 60.9768 957.818 21.7621 947.641 2.1548C900.236 1.28336 802.212 0.0633487 789.357 2.1548C773.287 4.76911 659.998 72.7412 647.142 75.3555C634.286 77.9698 577.24 81.2377 567.598 81.2377C557.957 81.2377 522.604 65.5518 513.766 60.9768C504.927 56.4017 447.077 36.1408 438.239 43.3302C429.401 50.5195 390.031 70.7804 384.406 81.2377C378.782 91.6949 361.106 110.649 353.875 116.531C346.762 122.316 329.545 124.941 316.749 126.891L316.111 126.988C303.256 128.949 305.666 119.799 275.938 110.649C246.209 101.499 222.908 98.8843 202.822 100.191C182.735 101.499 159.434 91.6949 141.758 81.2377C124.081 70.7804 120.064 60.9768 110.422 50.5195Z" fill="#CDDBEE" stroke="#3F73B4" stroke-width="2" stroke-dasharray="2 2"/>
<rect x="59.5" y="1.5" width="1017" height="387" stroke="#828282"/>
<path d="M29.952 17H22.32V16.488C22.32 15.7093 22.4693 15.0427 22.768 14.488C23.0667 13.9227 23.4133 13.4747 23.808 13.144C24.2027 12.8027 24.6773 12.456 25.232 12.104L26.768 11.128C27.216 10.8293 27.584 10.5093 27.872 10.168C28.16 9.816 28.304 9.38933 28.304 8.888C28.304 8.23733 28.128 7.74667 27.776 7.416C27.424 7.08533 26.9173 6.92 26.256 6.92C25.5947 6.92 25.0613 7.13867 24.656 7.576C24.2613 8.01333 24.0213 8.62133 23.936 9.4L22.32 9.24C22.3947 8.472 22.6187 7.81067 22.992 7.256C23.3653 6.70133 23.8347 6.28533 24.4 6.008C24.9653 5.72 25.584 5.576 26.256 5.576C26.9387 5.576 27.5627 5.69333 28.128 5.928C28.6933 6.16267 29.1467 6.52533 29.488 7.016C29.8293 7.50667 30 8.10933 30 8.824C30 9.42133 29.8827 9.93867 29.648 10.376C29.4133 10.8027 29.136 11.1493 28.816 11.416C28.496 11.672 28.1013 11.944 27.632 12.232L27.28 12.456L25.888 13.368C25.28 13.7627 24.8373 14.1467 24.56 14.52C24.2933 14.8933 24.144 15.2347 24.112 15.544H29.952V17ZM34.7385 17H33.1225V8.424H30.8825V7.304H31.2185C31.8585 7.304 32.3492 7.16533 32.6905 6.888C33.0425 6.6 33.2612 6.232 33.3465 5.784H34.7385V17ZM38.6114 15.016V17H36.6274V15.016H38.6114ZM44.223 5.56C45.4817 5.56 46.511 6.01867 47.311 6.936C48.1217 7.85333 48.527 9.34133 48.527 11.4C48.527 13.448 48.1217 14.9307 47.311 15.848C46.511 16.7653 45.4817 17.224 44.223 17.224C42.9643 17.224 41.935 16.7653 41.135 15.848C40.335 14.9307 39.935 13.448 39.935 11.4C39.935 9.34133 40.335 7.85333 41.135 6.936C41.935 6.01867 42.9643 5.56 44.223 5.56ZM44.223 15.88C45.0123 15.88 45.6417 15.5547 46.111 14.904C46.591 14.2427 46.831 13.0747 46.831 11.4C46.831 9.71467 46.591 8.54667 46.111 7.896C45.6417 7.23467 45.0123 6.904 44.223 6.904C43.4337 6.904 42.8043 7.23467 42.335 7.896C41.8657 8.54667 41.631 9.71467 41.631 11.4C41.631 13.0747 41.8657 14.2427 42.335 14.904C42.8043 15.5547 43.4337 15.88 44.223 15.88ZM53.2126 11.688H58.0446V13.176H53.2126V11.688Z" fill="black"/>
<path d="M25.176 145H23.56V136.424H21.32V135.304H21.656C22.296 135.304 22.7867 135.165 23.128 134.888C23.48 134.6 23.6987 134.232 23.784 133.784H25.176V145ZM30.5849 138.616C31.2249 138.616 31.7422 138.451 32.1369 138.12C32.5315 137.789 32.7289 137.341 32.7289 136.776C32.7289 136.2 32.5369 135.747 32.1529 135.416C31.7795 135.085 31.3049 134.92 30.7289 134.92C30.1635 134.92 29.6889 135.091 29.3049 135.432C28.9209 135.773 28.6862 136.259 28.6009 136.888L27.0009 136.728C27.1182 135.747 27.5075 134.979 28.1689 134.424C28.8409 133.859 29.6942 133.576 30.7289 133.576C31.4329 133.576 32.0622 133.704 32.6169 133.96C33.1715 134.205 33.6089 134.573 33.9289 135.064C34.2489 135.544 34.4089 136.115 34.4089 136.776C34.4089 137.309 34.2542 137.784 33.9449 138.2C33.6462 138.605 33.2515 138.915 32.7609 139.128V139.192C33.3582 139.384 33.8382 139.715 34.2009 140.184C34.5742 140.643 34.7609 141.208 34.7609 141.88C34.7609 142.957 34.3822 143.784 33.6249 144.36C32.8675 144.936 31.9022 145.224 30.7289 145.224C29.5875 145.224 28.6489 144.931 27.9129 144.344C27.1875 143.757 26.7449 142.899 26.5849 141.768L28.2489 141.592C28.3555 142.371 28.6222 142.947 29.0489 143.32C29.4862 143.693 30.0462 143.88 30.7289 143.88C31.4009 143.88 31.9555 143.704 32.3929 143.352C32.8409 142.989 33.0649 142.499 33.0649 141.88C33.0649 141.208 32.8409 140.707 32.3929 140.376C31.9449 140.035 31.3422 139.864 30.5849 139.864H29.5929V138.616H30.5849ZM38.0801 143.016V145H36.0961V143.016H38.0801ZM43.1158 141C42.5398 141 41.9638 140.861 41.3878 140.584C40.8118 140.307 40.3371 139.896 39.9638 139.352C39.5904 138.808 39.4038 138.147 39.4038 137.368C39.4038 136.536 39.5904 135.837 39.9638 135.272C40.3478 134.696 40.8331 134.269 41.4198 133.992C42.0064 133.715 42.6144 133.576 43.2438 133.576C43.9371 133.576 44.5718 133.709 45.1478 133.976C45.7238 134.232 46.2038 134.627 46.5878 135.16C46.8971 135.597 47.1318 136.184 47.2917 136.92C47.4624 137.656 47.5478 138.488 47.5478 139.416C47.5478 141.603 47.1371 143.117 46.3158 143.96C45.4944 144.803 44.4758 145.224 43.2598 145.224C42.4064 145.224 41.6491 144.995 40.9878 144.536C40.3371 144.067 39.8731 143.4 39.5958 142.536L41.2278 142.344C41.3771 142.792 41.6224 143.171 41.9638 143.48C42.3158 143.789 42.7478 143.944 43.2598 143.944C44.0064 143.944 44.6358 143.651 45.1478 143.064C45.6704 142.467 45.9318 141.416 45.9318 139.912V139.768H45.8678C45.5264 140.184 45.1104 140.493 44.6198 140.696C44.1398 140.899 43.6384 141 43.1158 141ZM43.2758 134.856C42.8811 134.856 42.5131 134.952 42.1718 135.144C41.8304 135.336 41.5531 135.613 41.3398 135.976C41.1371 136.339 41.0358 136.776 41.0358 137.288C41.0358 137.789 41.1371 138.227 41.3398 138.6C41.5531 138.963 41.8304 139.24 42.1718 139.432C42.5131 139.624 42.8811 139.72 43.2758 139.72C43.7131 139.72 44.1131 139.619 44.4758 139.416C44.8384 139.213 45.1264 138.931 45.3398 138.568C45.5531 138.195 45.6598 137.768 45.6598 137.288C45.6598 136.797 45.5531 136.371 45.3398 136.008C45.1264 135.635 44.8384 135.352 44.4758 135.16C44.1131 134.957 43.7131 134.856 43.2758 134.856ZM52.2283 139.688H57.0603V141.176H52.2283V139.688Z" fill="black"/>
<path d="M26.176 201H24.56V192.424H22.32V191.304H22.656C23.296 191.304 23.7867 191.165 24.128 190.888C24.48 190.6 24.6987 190.232 24.784 189.784H26.176V201ZM32.1449 189.56C33.4035 189.56 34.4329 190.019 35.2329 190.936C36.0435 191.853 36.4489 193.341 36.4489 195.4C36.4489 197.448 36.0435 198.931 35.2329 199.848C34.4329 200.765 33.4035 201.224 32.1449 201.224C30.8862 201.224 29.8569 200.765 29.0569 199.848C28.2569 198.931 27.8569 197.448 27.8569 195.4C27.8569 193.341 28.2569 191.853 29.0569 190.936C29.8569 190.019 30.8862 189.56 32.1449 189.56ZM32.1449 199.88C32.9342 199.88 33.5635 199.555 34.0329 198.904C34.5129 198.243 34.7529 197.075 34.7529 195.4C34.7529 193.715 34.5129 192.547 34.0329 191.896C33.5635 191.235 32.9342 190.904 32.1449 190.904C31.3555 190.904 30.7262 191.235 30.2569 191.896C29.7875 192.547 29.5529 193.715 29.5529 195.4C29.5529 197.075 29.7875 198.243 30.2569 198.904C30.7262 199.555 31.3555 199.88 32.1449 199.88ZM39.7676 199.016V201H37.7836V199.016H39.7676ZM45.3793 189.56C46.6379 189.56 47.6673 190.019 48.4673 190.936C49.2779 191.853 49.6833 193.341 49.6833 195.4C49.6833 197.448 49.2779 198.931 48.4673 199.848C47.6673 200.765 46.6379 201.224 45.3793 201.224C44.1206 201.224 43.0913 200.765 42.2913 199.848C41.4913 198.931 41.0913 197.448 41.0913 195.4C41.0913 193.341 41.4913 191.853 42.2913 190.936C43.0913 190.019 44.1206 189.56 45.3793 189.56ZM45.3793 199.88C46.1686 199.88 46.7979 199.555 47.2673 198.904C47.7473 198.243 47.9873 197.075 47.9873 195.4C47.9873 193.715 47.7473 192.547 47.2673 191.896C46.7979 191.235 46.1686 190.904 45.3793 190.904C44.5899 190.904 43.9606 191.235 43.4913 191.896C43.0219 192.547 42.7873 193.715 42.7873 195.4C42.7873 197.075 43.0219 198.243 43.4913 198.904C43.9606 199.555 44.5899 199.88 45.3793 199.88ZM54.3689 195.688H59.2009V197.176H54.3689V195.688Z" fill="black"/>
<path d="M32.288 263.616C32.928 263.616 33.4453 263.451 33.84 263.12C34.2347 262.789 34.432 262.341 34.432 261.776C34.432 261.2 34.24 260.747 33.856 260.416C33.4827 260.085 33.008 259.92 32.432 259.92C31.8667 259.92 31.392 260.091 31.008 260.432C30.624 260.773 30.3893 261.259 30.304 261.888L28.704 261.728C28.8213 260.747 29.2107 259.979 29.872 259.424C30.544 258.859 31.3973 258.576 32.432 258.576C33.136 258.576 33.7653 258.704 34.32 258.96C34.8747 259.205 35.312 259.573 35.632 260.064C35.952 260.544 36.112 261.115 36.112 261.776C36.112 262.309 35.9573 262.784 35.648 263.2C35.3493 263.605 34.9547 263.915 34.464 264.128V264.192C35.0613 264.384 35.5413 264.715 35.904 265.184C36.2773 265.643 36.464 266.208 36.464 266.88C36.464 267.957 36.0853 268.784 35.328 269.36C34.5707 269.936 33.6053 270.224 32.432 270.224C31.2907 270.224 30.352 269.931 29.616 269.344C28.8907 268.757 28.448 267.899 28.288 266.768L29.952 266.592C30.0587 267.371 30.3253 267.947 30.752 268.32C31.1893 268.693 31.7493 268.88 32.432 268.88C33.104 268.88 33.6587 268.704 34.096 268.352C34.544 267.989 34.768 267.499 34.768 266.88C34.768 266.208 34.544 265.707 34.096 265.376C33.648 265.035 33.0453 264.864 32.288 264.864H31.296V263.616H32.288ZM39.7833 268.016V270H37.7993V268.016H39.7833ZM44.8189 266C44.2429 266 43.6669 265.861 43.0909 265.584C42.5149 265.307 42.0402 264.896 41.6669 264.352C41.2935 263.808 41.1069 263.147 41.1069 262.368C41.1069 261.536 41.2935 260.837 41.6669 260.272C42.0509 259.696 42.5362 259.269 43.1229 258.992C43.7095 258.715 44.3175 258.576 44.9469 258.576C45.6402 258.576 46.2749 258.709 46.8509 258.976C47.4269 259.232 47.9069 259.627 48.2909 260.16C48.6002 260.597 48.8349 261.184 48.9949 261.92C49.1655 262.656 49.2509 263.488 49.2509 264.416C49.2509 266.603 48.8402 268.117 48.0189 268.96C47.1975 269.803 46.1789 270.224 44.9629 270.224C44.1095 270.224 43.3522 269.995 42.6909 269.536C42.0402 269.067 41.5762 268.4 41.2989 267.536L42.9309 267.344C43.0802 267.792 43.3255 268.171 43.6669 268.48C44.0189 268.789 44.4509 268.944 44.9629 268.944C45.7095 268.944 46.3389 268.651 46.8509 268.064C47.3735 267.467 47.6349 266.416 47.6349 264.912V264.768H47.5709C47.2295 265.184 46.8135 265.493 46.3229 265.696C45.8429 265.899 45.3415 266 44.8189 266ZM44.9789 259.856C44.5842 259.856 44.2162 259.952 43.8749 260.144C43.5335 260.336 43.2562 260.613 43.0429 260.976C42.8402 261.339 42.7389 261.776 42.7389 262.288C42.7389 262.789 42.8402 263.227 43.0429 263.6C43.2562 263.963 43.5335 264.24 43.8749 264.432C44.2162 264.624 44.5842 264.72 44.9789 264.72C45.4162 264.72 45.8162 264.619 46.1789 264.416C46.5415 264.213 46.8295 263.931 47.0429 263.568C47.2562 263.195 47.3629 262.768 47.3629 262.288C47.3629 261.797 47.2562 261.371 47.0429 261.008C46.8295 260.635 46.5415 260.352 46.1789 260.16C45.8162 259.957 45.4162 259.856 44.9789 259.856ZM53.9314 264.688H58.7634V266.176H53.9314V264.688Z" fill="black"/>
<path d="M33.288 302.616C33.928 302.616 34.4453 302.451 34.84 302.12C35.2347 301.789 35.432 301.341 35.432 300.776C35.432 300.2 35.24 299.747 34.856 299.416C34.4827 299.085 34.008 298.92 33.432 298.92C32.8667 298.92 32.392 299.091 32.008 299.432C31.624 299.773 31.3893 300.259 31.304 300.888L29.704 300.728C29.8213 299.747 30.2107 298.979 30.872 298.424C31.544 297.859 32.3973 297.576 33.432 297.576C34.136 297.576 34.7653 297.704 35.32 297.96C35.8747 298.205 36.312 298.573 36.632 299.064C36.952 299.544 37.112 300.115 37.112 300.776C37.112 301.309 36.9573 301.784 36.648 302.2C36.3493 302.605 35.9547 302.915 35.464 303.128V303.192C36.0613 303.384 36.5413 303.715 36.904 304.184C37.2773 304.643 37.464 305.208 37.464 305.88C37.464 306.957 37.0853 307.784 36.328 308.36C35.5707 308.936 34.6053 309.224 33.432 309.224C32.2907 309.224 31.352 308.931 30.616 308.344C29.8907 307.757 29.448 306.899 29.288 305.768L30.952 305.592C31.0587 306.371 31.3253 306.947 31.752 307.32C32.1893 307.693 32.7493 307.88 33.432 307.88C34.104 307.88 34.6587 307.704 35.096 307.352C35.544 306.989 35.768 306.499 35.768 305.88C35.768 305.208 35.544 304.707 35.096 304.376C34.648 304.035 34.0453 303.864 33.288 303.864H32.296V302.616H33.288ZM40.7833 307.016V309H38.7993V307.016H40.7833ZM46.3949 297.56C47.6535 297.56 48.6829 298.019 49.4829 298.936C50.2935 299.853 50.6989 301.341 50.6989 303.4C50.6989 305.448 50.2935 306.931 49.4829 307.848C48.6829 308.765 47.6535 309.224 46.3949 309.224C45.1362 309.224 44.1069 308.765 43.3069 307.848C42.5069 306.931 42.1069 305.448 42.1069 303.4C42.1069 301.341 42.5069 299.853 43.3069 298.936C44.1069 298.019 45.1362 297.56 46.3949 297.56ZM46.3949 307.88C47.1842 307.88 47.8135 307.555 48.2829 306.904C48.7629 306.243 49.0029 305.075 49.0029 303.4C49.0029 301.715 48.7629 300.547 48.2829 299.896C47.8135 299.235 47.1842 298.904 46.3949 298.904C45.6055 298.904 44.9762 299.235 44.5069 299.896C44.0375 300.547 43.8029 301.715 43.8029 303.4C43.8029 305.075 44.0375 306.243 44.5069 306.904C44.9762 307.555 45.6055 307.88 46.3949 307.88ZM55.3845 303.688H60.2165V305.176H55.3845V303.688Z" fill="black"/>
<path d="M32.848 373.56C34.1067 373.56 35.136 374.019 35.936 374.936C36.7467 375.853 37.152 377.341 37.152 379.4C37.152 381.448 36.7467 382.931 35.936 383.848C35.136 384.765 34.1067 385.224 32.848 385.224C31.5893 385.224 30.56 384.765 29.76 383.848C28.96 382.931 28.56 381.448 28.56 379.4C28.56 377.341 28.96 375.853 29.76 374.936C30.56 374.019 31.5893 373.56 32.848 373.56ZM32.848 383.88C33.6373 383.88 34.2667 383.555 34.736 382.904C35.216 382.243 35.456 381.075 35.456 379.4C35.456 377.715 35.216 376.547 34.736 375.896C34.2667 375.235 33.6373 374.904 32.848 374.904C32.0587 374.904 31.4293 375.235 30.96 375.896C30.4907 376.547 30.256 377.715 30.256 379.4C30.256 381.075 30.4907 382.243 30.96 382.904C31.4293 383.555 32.0587 383.88 32.848 383.88ZM40.4708 383.016V385H38.4868V383.016H40.4708ZM46.0824 373.56C47.341 373.56 48.3704 374.019 49.1704 374.936C49.981 375.853 50.3864 377.341 50.3864 379.4C50.3864 381.448 49.981 382.931 49.1704 383.848C48.3704 384.765 47.341 385.224 46.0824 385.224C44.8237 385.224 43.7944 384.765 42.9944 383.848C42.1944 382.931 41.7944 381.448 41.7944 379.4C41.7944 377.341 42.1944 375.853 42.9944 374.936C43.7944 374.019 44.8237 373.56 46.0824 373.56ZM46.0824 383.88C46.8717 383.88 47.501 383.555 47.9704 382.904C48.4504 382.243 48.6904 381.075 48.6904 379.4C48.6904 377.715 48.4504 376.547 47.9704 375.896C47.501 375.235 46.8717 374.904 46.0824 374.904C45.293 374.904 44.6637 375.235 44.1944 375.896C43.725 376.547 43.4904 377.715 43.4904 379.4C43.4904 381.075 43.725 382.243 44.1944 382.904C44.6637 383.555 45.293 383.88 46.0824 383.88ZM55.072 379.688H59.904V381.176H55.072V379.688Z" fill="black"/>
<path d="M59.176 411H57.56V402.424H55.32V401.304H55.656C56.296 401.304 56.7867 401.165 57.128 400.888C57.48 400.6 57.6987 400.232 57.784 399.784H59.176V411ZM68.2489 411H60.6169V410.488C60.6169 409.709 60.7662 409.043 61.0649 408.488C61.3635 407.923 61.7102 407.475 62.1049 407.144C62.4995 406.803 62.9742 406.456 63.5289 406.104L65.0649 405.128C65.5129 404.829 65.8809 404.509 66.1689 404.168C66.4569 403.816 66.6009 403.389 66.6009 402.888C66.6009 402.237 66.4249 401.747 66.0729 401.416C65.7209 401.085 65.2142 400.92 64.5529 400.92C63.8915 400.92 63.3582 401.139 62.9529 401.576C62.5582 402.013 62.3182 402.621 62.2329 403.4L60.6169 403.24C60.6915 402.472 60.9155 401.811 61.2889 401.256C61.6622 400.701 62.1315 400.285 62.6969 400.008C63.2622 399.72 63.8809 399.576 64.5529 399.576C65.2355 399.576 65.8595 399.693 66.4249 399.928C66.9902 400.163 67.4435 400.525 67.7849 401.016C68.1262 401.507 68.2969 402.109 68.2969 402.824C68.2969 403.421 68.1795 403.939 67.9449 404.376C67.7102 404.803 67.4329 405.149 67.1129 405.416C66.7929 405.672 66.3982 405.944 65.9289 406.232L65.5769 406.456L64.1849 407.368C63.5769 407.763 63.1342 408.147 62.8569 408.52C62.5902 408.893 62.4409 409.235 62.4089 409.544H68.2489V411ZM78.1463 411C78.0716 410.925 78.0076 410.787 77.9543 410.584C77.9116 410.381 77.8903 410.147 77.8903 409.88C77.6343 410.317 77.2343 410.648 76.6903 410.872C76.1569 411.085 75.6076 411.192 75.0423 411.192C74.5409 411.192 74.0769 411.091 73.6503 410.888C73.2236 410.675 72.8823 410.381 72.6263 410.008C72.3809 409.624 72.2583 409.176 72.2583 408.664C72.2583 407.8 72.5569 407.165 73.1543 406.76C73.7516 406.344 74.6529 406.072 75.8583 405.944C76.6369 405.869 77.1649 405.757 77.4423 405.608C77.7303 405.459 77.8743 405.245 77.8743 404.968C77.8743 404.125 77.2823 403.704 76.0983 403.704C75.6396 403.704 75.2236 403.827 74.8503 404.072C74.4769 404.307 74.2156 404.659 74.0663 405.128L72.5783 404.776C72.7596 404.029 73.1756 403.443 73.8263 403.016C74.4769 402.579 75.2556 402.36 76.1623 402.36C77.3143 402.36 78.1569 402.6 78.6903 403.08C79.2343 403.549 79.5063 404.168 79.5063 404.936V409.176C79.5063 409.709 79.5169 410.104 79.5383 410.36C79.5703 410.605 79.6343 410.819 79.7303 411H78.1463ZM77.8743 406.648C77.7569 406.776 77.5063 406.883 77.1223 406.968C76.7489 407.043 76.2689 407.117 75.6823 407.192C75.1809 407.256 74.7596 407.411 74.4183 407.656C74.0876 407.891 73.9223 408.227 73.9223 408.664C73.9223 409.069 74.0503 409.379 74.3063 409.592C74.5623 409.795 74.9143 409.896 75.3623 409.896C75.7676 409.896 76.1623 409.821 76.5463 409.672C76.9303 409.512 77.2449 409.267 77.4903 408.936C77.7463 408.595 77.8743 408.173 77.8743 407.672V406.648ZM90.1414 402.36C90.632 402.36 91.0907 402.472 91.5174 402.696C91.9547 402.909 92.3067 403.245 92.5734 403.704C92.84 404.163 92.9734 404.728 92.9734 405.4V411H91.3414V405.896C91.3414 405.128 91.1974 404.579 90.9094 404.248C90.6214 403.907 90.1894 403.736 89.6134 403.736C89.272 403.736 88.9574 403.837 88.6694 404.04C88.3814 404.243 88.1467 404.541 87.9654 404.936C87.784 405.32 87.6934 405.789 87.6934 406.344V411H86.0614V405.896C86.0614 405.128 85.9174 404.579 85.6294 404.248C85.3414 403.907 84.9094 403.736 84.3334 403.736C83.992 403.736 83.6774 403.837 83.3894 404.04C83.1014 404.243 82.8667 404.541 82.6854 404.936C82.504 405.331 82.4134 405.805 82.4134 406.36V411H80.7814V402.552H82.3334V403.688H82.3974C82.7067 403.229 83.0694 402.893 83.4854 402.68C83.912 402.467 84.3707 402.36 84.8614 402.36C85.384 402.36 85.864 402.477 86.3014 402.712C86.7387 402.936 87.0747 403.283 87.3094 403.752C87.6934 403.283 88.1094 402.936 88.5574 402.712C89.016 402.477 89.544 402.36 90.1414 402.36Z" fill="black"/>
<path d="M72.688 393.928V389.096H74.176V393.928H72.688Z" fill="black"/>
<path d="M534.176 412H532.56V403.424H530.32V402.304H530.656C531.296 402.304 531.787 402.165 532.128 401.888C532.48 401.6 532.699 401.232 532.784 400.784H534.176V412ZM543.249 412H535.617V411.488C535.617 410.709 535.766 410.043 536.065 409.488C536.364 408.923 536.71 408.475 537.105 408.144C537.5 407.803 537.974 407.456 538.529 407.104L540.065 406.128C540.513 405.829 540.881 405.509 541.169 405.168C541.457 404.816 541.601 404.389 541.601 403.888C541.601 403.237 541.425 402.747 541.073 402.416C540.721 402.085 540.214 401.92 539.553 401.92C538.892 401.92 538.358 402.139 537.953 402.576C537.558 403.013 537.318 403.621 537.233 404.4L535.617 404.24C535.692 403.472 535.916 402.811 536.289 402.256C536.662 401.701 537.132 401.285 537.697 401.008C538.262 400.72 538.881 400.576 539.553 400.576C540.236 400.576 540.86 400.693 541.425 400.928C541.99 401.163 542.444 401.525 542.785 402.016C543.126 402.507 543.297 403.109 543.297 403.824C543.297 404.421 543.18 404.939 542.945 405.376C542.71 405.803 542.433 406.149 542.113 406.416C541.793 406.672 541.398 406.944 540.929 407.232L540.577 407.456L539.185 408.368C538.577 408.763 538.134 409.147 537.857 409.52C537.59 409.893 537.441 410.235 537.409 410.544H543.249V412ZM551.818 412.192C551.242 412.192 550.73 412.091 550.282 411.888C549.845 411.675 549.509 411.387 549.274 411.024H549.21V414.944H547.578V403.552H549.13V404.64H549.194C549.429 404.235 549.776 403.92 550.234 403.696C550.693 403.472 551.221 403.36 551.818 403.36C552.565 403.36 553.226 403.547 553.802 403.92C554.389 404.283 554.842 404.8 555.162 405.472C555.493 406.133 555.658 406.901 555.658 407.776C555.658 408.651 555.493 409.424 555.162 410.096C554.842 410.757 554.389 411.275 553.802 411.648C553.226 412.011 552.565 412.192 551.818 412.192ZM551.53 404.688C550.794 404.688 550.202 404.965 549.754 405.52C549.317 406.075 549.098 406.827 549.098 407.776C549.098 408.725 549.317 409.477 549.754 410.032C550.202 410.587 550.794 410.864 551.53 410.864C552.288 410.864 552.885 410.592 553.322 410.048C553.77 409.493 553.994 408.736 553.994 407.776C553.994 406.816 553.77 406.064 553.322 405.52C552.885 404.965 552.288 404.688 551.53 404.688ZM566.11 403.36C566.601 403.36 567.059 403.472 567.486 403.696C567.923 403.909 568.275 404.245 568.542 404.704C568.809 405.163 568.942 405.728 568.942 406.4V412H567.31V406.896C567.31 406.128 567.166 405.579 566.878 405.248C566.59 404.907 566.158 404.736 565.582 404.736C565.241 404.736 564.926 404.837 564.638 405.04C564.35 405.243 564.115 405.541 563.934 405.936C563.753 406.32 563.662 406.789 563.662 407.344V412H562.03V406.896C562.03 406.128 561.886 405.579 561.598 405.248C561.31 404.907 560.878 404.736 560.302 404.736C559.961 404.736 559.646 404.837 559.358 405.04C559.07 405.243 558.835 405.541 558.654 405.936C558.473 406.331 558.382 406.805 558.382 407.36V412H556.75V403.552H558.302V404.688H558.366C558.675 404.229 559.038 403.893 559.454 403.68C559.881 403.467 560.339 403.36 560.83 403.36C561.353 403.36 561.833 403.477 562.27 403.712C562.707 403.936 563.043 404.283 563.278 404.752C563.662 404.283 564.078 403.936 564.526 403.712C564.985 403.477 565.513 403.36 566.11 403.36Z" fill="black"/>
<path d="M547.688 394.928V390.096H549.176V394.928H547.688Z" fill="black"/>
<path d="M1041.18 411H1039.56V402.424H1037.32V401.304H1037.66C1038.3 401.304 1038.79 401.165 1039.13 400.888C1039.48 400.6 1039.7 400.232 1039.78 399.784H1041.18V411ZM1050.25 411H1042.62V410.488C1042.62 409.709 1042.77 409.043 1043.06 408.488C1043.36 407.923 1043.71 407.475 1044.1 407.144C1044.5 406.803 1044.97 406.456 1045.53 406.104L1047.06 405.128C1047.51 404.829 1047.88 404.509 1048.17 404.168C1048.46 403.816 1048.6 403.389 1048.6 402.888C1048.6 402.237 1048.42 401.747 1048.07 401.416C1047.72 401.085 1047.21 400.92 1046.55 400.92C1045.89 400.92 1045.36 401.139 1044.95 401.576C1044.56 402.013 1044.32 402.621 1044.23 403.4L1042.62 403.24C1042.69 402.472 1042.92 401.811 1043.29 401.256C1043.66 400.701 1044.13 400.285 1044.7 400.008C1045.26 399.72 1045.88 399.576 1046.55 399.576C1047.24 399.576 1047.86 399.693 1048.42 399.928C1048.99 400.163 1049.44 400.525 1049.78 401.016C1050.13 401.507 1050.3 402.109 1050.3 402.824C1050.3 403.421 1050.18 403.939 1049.94 404.376C1049.71 404.803 1049.43 405.149 1049.11 405.416C1048.79 405.672 1048.4 405.944 1047.93 406.232L1047.58 406.456L1046.18 407.368C1045.58 407.763 1045.13 408.147 1044.86 408.52C1044.59 408.893 1044.44 409.235 1044.41 409.544H1050.25V411ZM1060.15 411C1060.07 410.925 1060.01 410.787 1059.95 410.584C1059.91 410.381 1059.89 410.147 1059.89 409.88C1059.63 410.317 1059.23 410.648 1058.69 410.872C1058.16 411.085 1057.61 411.192 1057.04 411.192C1056.54 411.192 1056.08 411.091 1055.65 410.888C1055.22 410.675 1054.88 410.381 1054.63 410.008C1054.38 409.624 1054.26 409.176 1054.26 408.664C1054.26 407.8 1054.56 407.165 1055.15 406.76C1055.75 406.344 1056.65 406.072 1057.86 405.944C1058.64 405.869 1059.16 405.757 1059.44 405.608C1059.73 405.459 1059.87 405.245 1059.87 404.968C1059.87 404.125 1059.28 403.704 1058.1 403.704C1057.64 403.704 1057.22 403.827 1056.85 404.072C1056.48 404.307 1056.22 404.659 1056.07 405.128L1054.58 404.776C1054.76 404.029 1055.18 403.443 1055.83 403.016C1056.48 402.579 1057.26 402.36 1058.16 402.36C1059.31 402.36 1060.16 402.6 1060.69 403.08C1061.23 403.549 1061.51 404.168 1061.51 404.936V409.176C1061.51 409.709 1061.52 410.104 1061.54 410.36C1061.57 410.605 1061.63 410.819 1061.73 411H1060.15ZM1059.87 406.648C1059.76 406.776 1059.51 406.883 1059.12 406.968C1058.75 407.043 1058.27 407.117 1057.68 407.192C1057.18 407.256 1056.76 407.411 1056.42 407.656C1056.09 407.891 1055.92 408.227 1055.92 408.664C1055.92 409.069 1056.05 409.379 1056.31 409.592C1056.56 409.795 1056.91 409.896 1057.36 409.896C1057.77 409.896 1058.16 409.821 1058.55 409.672C1058.93 409.512 1059.24 409.267 1059.49 408.936C1059.75 408.595 1059.87 408.173 1059.87 407.672V406.648ZM1072.14 402.36C1072.63 402.36 1073.09 402.472 1073.52 402.696C1073.95 402.909 1074.31 403.245 1074.57 403.704C1074.84 404.163 1074.97 404.728 1074.97 405.4V411H1073.34V405.896C1073.34 405.128 1073.2 404.579 1072.91 404.248C1072.62 403.907 1072.19 403.736 1071.61 403.736C1071.27 403.736 1070.96 403.837 1070.67 404.04C1070.38 404.243 1070.15 404.541 1069.97 404.936C1069.78 405.32 1069.69 405.789 1069.69 406.344V411H1068.06V405.896C1068.06 405.128 1067.92 404.579 1067.63 404.248C1067.34 403.907 1066.91 403.736 1066.33 403.736C1065.99 403.736 1065.68 403.837 1065.39 404.04C1065.1 404.243 1064.87 404.541 1064.69 404.936C1064.5 405.331 1064.41 405.805 1064.41 406.36V411H1062.78V402.552H1064.33V403.688H1064.4C1064.71 403.229 1065.07 402.893 1065.49 402.68C1065.91 402.467 1066.37 402.36 1066.86 402.36C1067.38 402.36 1067.86 402.477 1068.3 402.712C1068.74 402.936 1069.07 403.283 1069.31 403.752C1069.69 403.283 1070.11 402.936 1070.56 402.712C1071.02 402.477 1071.54 402.36 1072.14 402.36Z" fill="black"/>
<path d="M1054.69 393.928V389.096H1056.18V393.928H1054.69Z" fill="black"/>
<path d="M179.717 237.343C168.147 234.954 95.085 198.124 60 180.007V295.874C71.2486 301.249 102.263 310.447 136.33 304.236C178.914 296.471 200.608 304.236 219.891 304.236C235.318 304.236 261.136 309.412 272.117 312L311.487 295.874C324.61 287.712 350.857 270.551 350.857 267.206C350.857 263.861 378.711 224.005 392.638 204.494L439.239 173.437C465.754 186.378 521.193 213.453 530.835 218.231C540.477 223.009 587.882 259.641 610.379 277.359C619.485 280.943 640.268 287.632 650.552 285.721C663.408 283.332 761.432 277.957 782.322 277.359C803.212 276.762 849.814 165.673 903.646 212.259C946.713 249.527 1037.83 289.105 1078 304.236V180.007C1068.63 173.039 1044.58 154.205 1023.36 134.616C1002.15 115.026 938.999 70.7094 910.074 51L861.866 61.7506C850.082 78.2746 825.71 112.517 822.496 117.295C819.282 122.073 788.482 136.805 773.484 143.574C762.503 143.176 739.738 142.619 736.524 143.574C733.31 144.53 708.403 138 696.35 134.616C683.763 134.018 656.98 133.182 650.552 134.616C644.125 136.049 621.092 151.538 610.379 159.103C599.398 161.293 575.026 165.673 565.384 165.673C553.332 165.673 523.604 151.936 518.783 148.352C513.962 144.769 491.465 123.268 482.627 111.323C475.556 101.767 450.756 94.9977 439.239 92.8078C429.597 100.572 408.868 117.534 403.083 123.268C395.852 130.435 355.678 196.73 350.857 204.494C346.036 212.259 311.487 223.606 295.418 224.801C279.348 225.995 243.995 237.343 231.943 237.343C219.891 237.343 194.18 240.33 179.717 237.343Z" fill="#85A6D0"/>
<line x1="59.9995" y1="140.5" x2="1078" y2="139.5" stroke="#828282"/>
<line x1="57.9995" y1="304.5" x2="1076" y2="303.5" stroke="#828282"/>
<path d="M1 197.833V185H1078V273H1V259.708" stroke="#1B9A2F" stroke-width="2"/>
<path d="M6.334 264.89H15V266.43H6.334V269.776H5.004L5.004 261.544H6.334L6.334 264.89ZM15 257.13C14.9347 257.195 14.8133 257.251 14.636 257.298C14.4587 257.335 14.2533 257.354 14.02 257.354C14.4027 257.578 14.692 257.928 14.888 258.404C15.0747 258.871 15.168 259.351 15.168 259.846C15.168 260.285 15.0793 260.691 14.902 261.064C14.7153 261.437 14.4587 261.736 14.132 261.96C13.796 262.175 13.404 262.282 12.956 262.282C12.2 262.282 11.6447 262.021 11.29 261.498C10.926 260.975 10.688 260.187 10.576 259.132C10.5107 258.451 10.4127 257.989 10.282 257.746C10.1513 257.494 9.96467 257.368 9.722 257.368C8.98467 257.368 8.616 257.886 8.616 258.922C8.616 259.323 8.72333 259.687 8.938 260.014C9.14333 260.341 9.45133 260.569 9.862 260.7L9.554 262.002C8.90067 261.843 8.38733 261.479 8.014 260.91C7.63133 260.341 7.44 259.659 7.44 258.866C7.44 257.858 7.65 257.121 8.07 256.654C8.48067 256.178 9.022 255.94 9.694 255.94H13.404C13.8707 255.94 14.216 255.931 14.44 255.912C14.6547 255.884 14.8413 255.828 15 255.744V257.13ZM11.192 257.368C11.304 257.471 11.3973 257.69 11.472 258.026C11.5373 258.353 11.6027 258.773 11.668 259.286C11.724 259.725 11.8593 260.093 12.074 260.392C12.2793 260.681 12.5733 260.826 12.956 260.826C13.3107 260.826 13.5813 260.714 13.768 260.49C13.9453 260.266 14.034 259.958 14.034 259.566C14.034 259.211 13.9687 258.866 13.838 258.53C13.698 258.194 13.4833 257.919 13.194 257.704C12.8953 257.48 12.5267 257.368 12.088 257.368H11.192ZM8.728 253.466V253.41C8.35467 253.214 8.04667 252.925 7.804 252.542C7.56133 252.159 7.44 251.716 7.44 251.212C7.44 250.979 7.46333 250.759 7.51 250.554H8.882C8.84467 250.815 8.826 251.058 8.826 251.282C8.826 251.926 9.008 252.439 9.372 252.822C9.72667 253.205 10.296 253.396 11.08 253.396H15V254.824H7.608V253.466H8.728ZM14.482 243.155C15.602 243.155 16.4233 243.473 16.946 244.107C17.478 244.742 17.744 245.577 17.744 246.613C17.744 247.444 17.5527 248.158 17.17 248.755C16.7873 249.343 16.1993 249.749 15.406 249.973L15.112 248.601C15.6347 248.461 16.008 248.228 16.232 247.901C16.456 247.565 16.568 247.136 16.568 246.613C16.568 245.26 15.8493 244.583 14.412 244.583H13.67V244.639C13.9593 244.845 14.188 245.134 14.356 245.507C14.524 245.881 14.608 246.31 14.608 246.795C14.608 247.43 14.4587 247.999 14.16 248.503C13.8613 248.998 13.4413 249.385 12.9 249.665C12.3587 249.945 11.7333 250.085 11.024 250.085C10.324 250.085 9.70333 249.945 9.162 249.665C8.61133 249.385 8.18667 248.998 7.888 248.503C7.58933 247.999 7.44 247.43 7.44 246.795C7.44 246.291 7.53333 245.843 7.72 245.451C7.89733 245.059 8.14467 244.765 8.462 244.569V244.513H7.608V243.155H14.482ZM13.474 246.557C13.474 245.932 13.25 245.433 12.802 245.059C12.354 244.686 11.7613 244.499 11.024 244.499C10.296 244.499 9.71267 244.686 9.274 245.059C8.826 245.433 8.602 245.932 8.602 246.557C8.602 247.183 8.826 247.687 9.274 248.069C9.71267 248.443 10.296 248.629 11.024 248.629C11.752 248.629 12.3447 248.443 12.802 248.069C13.25 247.687 13.474 247.183 13.474 246.557ZM12.844 235.377C13.488 235.582 14.0387 235.956 14.496 236.497C14.944 237.038 15.168 237.804 15.168 238.793C15.168 239.474 15.0093 240.081 14.692 240.613C14.3653 241.136 13.9127 241.542 13.334 241.831C12.746 242.12 12.074 242.265 11.318 242.265C10.5527 242.265 9.876 242.125 9.288 241.845C8.7 241.556 8.24733 241.154 7.93 240.641C7.60333 240.118 7.44 239.507 7.44 238.807C7.44 238.126 7.594 237.524 7.902 237.001C8.20067 236.469 8.63467 236.058 9.204 235.769C9.764 235.47 10.4313 235.321 11.206 235.321C11.402 235.321 11.5513 235.326 11.654 235.335V240.823C12.3447 240.804 12.9093 240.613 13.348 240.249C13.7867 239.876 14.006 239.39 14.006 238.793C14.006 238.224 13.8753 237.785 13.614 237.477C13.3433 237.169 13.0307 236.95 12.676 236.819L12.844 235.377ZM8.602 238.807C8.602 239.386 8.79333 239.848 9.176 240.193C9.54933 240.529 10.0113 240.73 10.562 240.795V236.777C10.002 236.842 9.53533 237.048 9.162 237.393C8.78867 237.738 8.602 238.21 8.602 238.807ZM13.768 230.907H15C15.0187 231.112 15.028 231.462 15.028 231.957C15.028 232.648 14.916 233.142 14.692 233.441C14.468 233.73 14.0387 233.875 13.404 233.875H8.686V235.093H7.608V233.875H5.522L5.522 232.447H7.608V230.823H8.686V232.447H13.026C13.3527 232.447 13.5627 232.386 13.656 232.265C13.7493 232.144 13.796 231.924 13.796 231.607L13.768 230.907ZM11.066 223.27V225.748H15L15 227.288H5.004V222.654C5.004 221.552 5.27933 220.703 5.83 220.106C6.37133 219.499 7.10867 219.196 8.042 219.196C8.80733 219.196 9.44667 219.401 9.96 219.812C10.464 220.222 10.7953 220.81 10.954 221.576L15 219.042V220.848L11.066 223.27ZM9.778 222.85C9.778 222.168 9.62867 221.65 9.33 221.296C9.03133 220.941 8.602 220.764 8.042 220.764C7.482 220.764 7.05267 220.941 6.754 221.296C6.446 221.65 6.292 222.168 6.292 222.85V225.748H9.778V222.85ZM15 213.544C14.9347 213.609 14.8133 213.665 14.636 213.712C14.4587 213.749 14.2533 213.768 14.02 213.768C14.4027 213.992 14.692 214.342 14.888 214.818C15.0747 215.285 15.168 215.765 15.168 216.26C15.168 216.699 15.0793 217.105 14.902 217.478C14.7153 217.851 14.4587 218.15 14.132 218.374C13.796 218.589 13.404 218.696 12.956 218.696C12.2 218.696 11.6447 218.435 11.29 217.912C10.926 217.389 10.688 216.601 10.576 215.546C10.5107 214.865 10.4127 214.403 10.282 214.16C10.1513 213.908 9.96467 213.782 9.722 213.782C8.98467 213.782 8.616 214.3 8.616 215.336C8.616 215.737 8.72333 216.101 8.938 216.428C9.14333 216.755 9.45133 216.983 9.862 217.114L9.554 218.416C8.90067 218.257 8.38733 217.893 8.014 217.324C7.63133 216.755 7.44 216.073 7.44 215.28C7.44 214.272 7.65 213.535 8.07 213.068C8.48067 212.592 9.022 212.354 9.694 212.354H13.404C13.8707 212.354 14.216 212.345 14.44 212.326C14.6547 212.298 14.8413 212.242 15 212.158V213.544ZM11.192 213.782C11.304 213.885 11.3973 214.104 11.472 214.44C11.5373 214.767 11.6027 215.187 11.668 215.7C11.724 216.139 11.8593 216.507 12.074 216.806C12.2793 217.095 12.5733 217.24 12.956 217.24C13.3107 217.24 13.5813 217.128 13.768 216.904C13.9453 216.68 14.034 216.372 14.034 215.98C14.034 215.625 13.9687 215.28 13.838 214.944C13.698 214.608 13.4833 214.333 13.194 214.118C12.8953 213.894 12.5267 213.782 12.088 213.782H11.192ZM8.588 209.824C8.196 209.554 7.90667 209.222 7.72 208.83C7.53333 208.438 7.44 208.004 7.44 207.528C7.44 207.062 7.538 206.632 7.734 206.24C7.92067 205.839 8.21467 205.517 8.616 205.274C9.008 205.032 9.50267 204.91 10.1 204.91H15V206.338H10.534C9.85267 206.338 9.36733 206.474 9.078 206.744C8.78867 207.015 8.644 207.426 8.644 207.976C8.644 208.294 8.73267 208.592 8.91 208.872C9.08733 209.152 9.34867 209.381 9.694 209.558C10.0393 209.726 10.4547 209.81 10.94 209.81H15V211.238H7.608V209.88H8.588V209.824ZM14.482 197.081C15.602 197.081 16.4233 197.398 16.946 198.033C17.478 198.668 17.744 199.503 17.744 200.539C17.744 201.37 17.5527 202.084 17.17 202.681C16.7873 203.269 16.1993 203.675 15.406 203.899L15.112 202.527C15.6347 202.387 16.008 202.154 16.232 201.827C16.456 201.491 16.568 201.062 16.568 200.539C16.568 199.186 15.8493 198.509 14.412 198.509H13.67V198.565C13.9593 198.77 14.188 199.06 14.356 199.433C14.524 199.806 14.608 200.236 14.608 200.721C14.608 201.356 14.4587 201.925 14.16 202.429C13.8613 202.924 13.4413 203.311 12.9 203.591C12.3587 203.871 11.7333 204.011 11.024 204.011C10.324 204.011 9.70333 203.871 9.162 203.591C8.61133 203.311 8.18667 202.924 7.888 202.429C7.58933 201.925 7.44 201.356 7.44 200.721C7.44 200.217 7.53333 199.769 7.72 199.377C7.89733 198.985 8.14467 198.691 8.462 198.495V198.439H7.608V197.081H14.482ZM13.474 200.483C13.474 199.858 13.25 199.358 12.802 198.985C12.354 198.612 11.7613 198.425 11.024 198.425C10.296 198.425 9.71267 198.612 9.274 198.985C8.826 199.358 8.602 199.858 8.602 200.483C8.602 201.108 8.826 201.612 9.274 201.995C9.71267 202.368 10.296 202.555 11.024 202.555C11.752 202.555 12.3447 202.368 12.802 201.995C13.25 201.612 13.474 201.108 13.474 200.483ZM12.844 189.303C13.488 189.508 14.0387 189.881 14.496 190.423C14.944 190.964 15.168 191.729 15.168 192.719C15.168 193.4 15.0093 194.007 14.692 194.539C14.3653 195.061 13.9127 195.467 13.334 195.757C12.746 196.046 12.074 196.191 11.318 196.191C10.5527 196.191 9.876 196.051 9.288 195.771C8.7 195.481 8.24733 195.08 7.93 194.567C7.60333 194.044 7.44 193.433 7.44 192.733C7.44 192.051 7.594 191.449 7.902 190.927C8.20067 190.395 8.63467 189.984 9.204 189.695C9.764 189.396 10.4313 189.247 11.206 189.247C11.402 189.247 11.5513 189.251 11.654 189.261V194.749C12.3447 194.73 12.9093 194.539 13.348 194.175C13.7867 193.801 14.006 193.316 14.006 192.719C14.006 192.149 13.8753 191.711 13.614 191.403C13.3433 191.095 13.0307 190.875 12.676 190.745L12.844 189.303ZM8.602 192.733C8.602 193.311 8.79333 193.773 9.176 194.119C9.54933 194.455 10.0113 194.655 10.562 194.721V190.703C10.002 190.768 9.53533 190.973 9.162 191.319C8.78867 191.664 8.602 192.135 8.602 192.733Z" fill="#3D3D3D"/>
</svg>
